<?xml version="1.0" encoding="UTF-8" standalone="no"?>
<!-- Created with Inkscape (http://www.inkscape.org/) -->

<svg
   xmlns:dc="http://purl.org/dc/elements/1.1/"
   xmlns:cc="http://creativecommons.org/ns#"
   xmlns:rdf="http://www.w3.org/1999/02/22-rdf-syntax-ns#"
   xmlns:svg="http://www.w3.org/2000/svg"
   xmlns="http://www.w3.org/2000/svg"
   xmlns:sodipodi="http://sodipodi.sourceforge.net/DTD/sodipodi-0.dtd"
   xmlns:inkscape="http://www.inkscape.org/namespaces/inkscape"
   version="1.1"
   id="svg3865"
   width="1329"
   height="1329"
   viewBox="0 0 1329 1329"
   sodipodi:docname="2d_maze_2.svg"
   inkscape:version="0.92.2 5c3e80d, 2017-08-06">
  <metadata
     id="metadata3871">
    <rdf:RDF>
      <cc:Work
         rdf:about="">
        <dc:format>image/svg+xml</dc:format>
        <dc:type
           rdf:resource="http://purl.org/dc/dcmitype/StillImage" />
        <dc:title></dc:title>
      </cc:Work>
    </rdf:RDF>
  </metadata>
  <defs
     id="defs3869" />
  <sodipodi:namedview
     pagecolor="#ffffff"
     bordercolor="#666666"
     borderopacity="1"
     objecttolerance="10"
     gridtolerance="10"
     guidetolerance="10"
     inkscape:pageopacity="0"
     inkscape:pageshadow="2"
     inkscape:window-width="1440"
     inkscape:window-height="813"
     id="namedview3867"
     showgrid="false"
     inkscape:zoom="0.45146727"
     inkscape:cx="664.5"
     inkscape:cy="664.5"
     inkscape:window-x="0"
     inkscape:window-y="1"
     inkscape:window-maximized="1"
     inkscape:current-layer="svg3865" />
  <path
     style="fill:#000000"
     d="m 18.9654,670.03 c 0,-590 0.168172,-664.5 1.5,-664.5 1.331828,0 1.5,74.5 1.5,664.5 0,590 -0.168172,664.5 -1.5,664.5 -1.331828,0 -1.5,-74.5 -1.5,-664.5 z m 7,36.56888 V 81.66477 l 2.072172,-0.65768 c 1.139694,-0.36172 3.164694,-0.38347 4.5,-0.0483 l 2.427828,0.60935 v 31.35851 c 0,25.03052 0.271107,31.5835 1.343478,32.47349 0.949796,0.78826 20.070112,1.19043 65.250002,1.37244 L 165.4654,147.03 v 4 4 l -65,0.5 -65,0.5 -0.255258,91.8912 c -0.187159,67.37586 0.04734,92.25581 0.878982,93.25788 0.940117,1.13277 11.252736,1.32254 60.255256,1.1088 l 59.12102,-0.25788 0.26579,-27.73613 0.2658,-27.73612 -32.2658,-0.26388 L 91.4654,286.03 v -37 -37 l 40.28408,-0.26137 40.28408,-0.26138 2.46592,2.46592 c 3.00972,3.00972 3.11768,5.45853 0.39334,8.92197 l -2.07258,2.63486 h -35.9443 -35.94431 l 0.26689,25.75 0.26688,25.75 32,0.0148 32,0.0148 0.27887,35.48522 c 0.15338,19.51687 0.0607,36.38522 -0.20592,37.48522 -0.47939,1.97774 -1.18296,1.99653 -63.21345,1.68792 -34.50076,-0.17165 -63.77414,-0.0497 -65.051942,0.27102 l -2.323277,0.58311 0.25786,59.72897 0.257859,59.72894 125.75,0.25386 125.75,0.25386 V 440.03386 407.53 h 31.45455 31.45454 l 2.63641,-2.63641 2.63641,-2.63641 24.65905,0.65331 c 50.19032,1.32974 54.26267,1.63223 56.85349,4.22305 2.98657,2.98658 2.92048,5.87244 -0.2061,8.99902 l -2.51165,2.51164 -28.73835,-0.8071 c -31.64217,-0.88865 -30.22264,-0.8785 -75.98835,-0.54331 l -32.25,0.23621 v 66.52305 66.52306 l -2.33603,-1.53063 c -2.04556,-1.3403 -10.15902,-1.4986 -65.25,-1.27305 l -62.91397,0.25757 -0.23476,93.28726 c -0.16621,66.04705 -0.559,93.89312 -1.34515,95.36206 -0.61072,1.14114 -0.90498,3.14937 -0.65392,4.46274 0.42477,2.22201 0.15344,2.38794 -3.90484,2.38794 -4.10161,0 -4.36133,-0.1654 -4.36133,-2.77749 0,-1.52763 -0.70052,-3.77763 -1.5567,-5 -1.41087,-2.01429 -1.40945,-2.22251 0.0151,-2.22251 1.42084,0 1.53224,-8.95852 1.15956,-93.25 -0.22676,-51.2875 -0.58196,-95.3875 -0.78933,-98 l -0.37703,-4.75 h 66.27418 66.27418 v -9.44098 c 0,-10.03778 -1.16237,-12.7062 -3.80266,-8.72971 -0.79271,1.19388 -2.46325,2.17069 -3.71232,2.17069 -1.24907,0 -2.53006,0.675 -2.84665,1.5 -0.31658,0.825 -1.72885,1.5 -3.13837,1.5 -1.40952,0 -2.82179,0.675 -3.13837,1.5 -0.46881,1.22168 -2.8751,1.5 -12.96862,1.5 -10.3493,0 -12.39297,-0.24736 -12.39297,-1.5 0,-1.00345 -1.00349,-1.5 -3.03138,-1.5 -1.77208,0 -3.27051,-0.62314 -3.60699,-1.5 -0.32811,-0.85503 -1.81954,-1.5 -3.46862,-1.5 -1.93125,0 -2.89301,-0.5091 -2.89301,-1.53138 0,-0.84227 -0.675,-1.79041 -1.5,-2.10699 -1.65828,-0.63635 -2.18249,-8.36163 -0.56739,-8.36163 0.51294,0 1.21826,-0.9 1.56739,-2 0.43747,-1.37836 1.51303,-2 3.4604,-2 1.58917,0 3.0775,-0.65638 3.40123,-1.5 0.33648,-0.87686 1.83491,-1.5 3.60699,-1.5 2.02789,0 3.03138,-0.49655 3.03138,-1.5 0,-1.25264 2.04367,-1.5 12.39301,-1.5 10.09352,0 12.49981,0.27832 12.96862,1.5 0.37225,0.97007 1.92133,1.5 4.38474,1.5 4.22865,0 7.38042,2.66987 8.26345,7 0.2804,1.375 1.1804,2.5 2,2.5 1.25173,0 1.49018,-2.32025 1.49018,-14.5 v -14.5 h -125.5 -125.5 v 60 60 l 32.75,0.26366 32.75,0.26367 v 33.78633 c 0,23.76009 0.33496,34.1213 1.12875,34.91509 0.81188,0.81188 1.00659,10.82174 0.69358,35.65735 -0.40113,31.82761 -0.57977,34.68839 -2.28374,36.57125 -2.43901,2.69509 -7.87436,2.70688 -10.55833,0.0229 -1.97344,-1.97344 -2.0047,-2.79289 -1.36365,-35.75 0.36085,-18.55164 1.04473,-34.48818 1.51974,-35.41452 0.47501,-0.92633 0.86365,-14.76383 0.86365,-30.74999 V 613.53 h -28 -28 v 92.48095 92.48095 l 2.25,0.52435 c 1.2375,0.28839 57.825,0.40947 125.75,0.26905 l 123.5,-0.2553 0.5,-32.5 0.5,-32.5 3.58559,-0.30056 c 2.19643,-0.18412 4.0416,0.24889 4.76261,1.11766 0.86608,1.04355 1.10765,11.0299 0.91441,37.80056 l -0.26261,36.38234 -32.75,0.26366 -32.75,0.26367 v 91.40457 c 0,50.2725 0.27314,92.1163 0.60699,92.9863 0.5318,1.3859 3.80424,1.5818 26.41821,1.5818 14.19617,0 26.52303,-0.2731 27.39301,-0.607 1.41992,-0.5449 1.58179,-7.2534 1.58179,-65.5548 v -64.94778 l 4.75,0.30479 4.75,0.30479 0.2568,69.75 c 0.20406,55.4259 -10e-4,69.7719 -1,69.8568 -0.69124,0.059 -15.8818,-0.025 -33.7568,-0.1866 -17.875,-0.1614 -34.1875,-0.2545 -36.25,-0.2068 l -3.75,0.087 v -97.4001 -97.40005 h -60.5 -60.5 v 65.05475 65.0548 l -4.75,-0.3048 -4.75,-0.3048 -0.25729,-64.75 -0.2573,-64.75 H 62.95811 34.9654 v 92.5 c 0,50.875 0.1125,92.5968 0.25,92.7152 0.1375,0.1184 14.875,0.4559 32.75,0.75 l 32.5,0.5348 v 4 4 l -32.5,0.5348 c -17.875,0.2941 -32.6125,0.6316 -32.75,0.75 -0.1375,0.1184 -0.25,13.5006 -0.25,29.7383 v 29.523 l 2.25,-1.4126 c 1.74311,-1.0944 9.16158,-1.5665 32.92951,-2.096 35.64431,-0.7939 36.7674,-0.5786 36.80518,7.0575 0.0316,6.3954 -0.38452,6.4793 -35.32787,7.1293 -28.53188,0.5307 -31.77889,0.4257 -34.111811,-1.1029 l -2.578349,-1.6894 0.26667,26.284 0.26667,26.284 60.25,0.2578 60.25,0.2578 v -25.8275 -25.8274 l 2.5,-2.1738 c 1.75933,-1.5297 2.5,-3.1911 2.5,-5.6077 0,-2.4719 -0.70044,-3.985 -2.5,-5.4005 l -2.5,-1.9665 v -95.5243 c 0,-52.5384 0.27314,-96.23613 0.60699,-97.10611 0.40966,-1.06756 1.87257,-1.58179 4.5,-1.58179 2.14115,0 4.0013,0.1125 4.13365,0.25 0.13235,0.1375 0.46985,58.75 0.75,130.25 l 0.50936,130 h 60 60 l 0.26635,-27.4032 0.26635,-27.4031 -21.76635,0.6807 c -11.97149,0.3743 -25.81635,0.9488 -30.76635,1.2766 -7.99304,0.5293 -9.27039,0.3758 -11.41667,-1.3717 -3.05237,-2.4852 -3.25157,-7.5555 -0.40855,-10.3985 1.86819,-1.8682 4.36393,-2.1094 35.81662,-3.4612 30.35146,-1.3045 34.04881,-1.2957 36.15855,0.087 1.29253,0.8469 2.38104,2.0919 2.41891,2.7668 0.0379,0.6748 0.15038,15.6269 0.25,33.2269 l 0.18114,32 27.25,0.2661 27.25,0.266 V 901.9502 678.33788 l -32.25,0.20519 c -17.7375,0.11285 -46.9875,0.15614 -65,0.0962 l -32.75,-0.10927 v -37.5 -37.5 h 4.48615 4.48614 l 0.26386,32.25 0.26385,32.25 25.43245,0.26755 c 13.98784,0.14716 25.72589,-0.0778 26.08455,-0.5 0.35866,-0.42215 -0.14065,-12.24255 -1.10958,-26.26755 -2.39608,-34.68267 -2.40798,-41.23702 -0.0787,-43.34501 2.74561,-2.48474 7.66412,-2.11517 9.91387,0.74492 1.64171,2.08709 2.11165,6.09509 3.60548,30.75 0.94474,15.59255 1.97976,30.71259 2.30004,33.60009 l 0.58232,5.25 h 26.88477 26.88478 v -32.55479 -32.55479 l 4.75,0.30479 4.75,0.30479 0.26387,32.26579 0.26388,32.2658 27.73612,-0.2658 27.73615,-0.26579 0.27637,-58 c 0.15201,-31.9 0.0309,-59.0125 -0.26905,-60.25 l -0.54542,-2.25 h -32.53574 -32.53574 l 0.30479,-4.75 0.30479,-4.75 65.25,-0.25724 65.25,-0.25724 v -58.31845 -58.31844 l 2.5,-2.34863 c 3.28589,-3.08693 3.28917,-7.36412 0.008,-10.40502 l -2.49201,-2.30952 -0.25799,-59.39273 -0.258,-59.39273 -32.5,-0.5 -32.5,-0.5 -0.3075,-4.25 c -0.33007,-4.56202 0.21163,-5.01527 3.24863,-2.7182 2.44859,1.85202 6.51933,1.88462 9.1059,0.0729 1.5761,-1.10394 8.14759,-1.44166 31.4725,-1.61743 16.21426,-0.12218 30.04297,-0.1693 30.73047,-0.10472 0.99325,0.0933 1.25,27.84673 1.25,135.11743 0,107.27982 -0.25667,135.0206 -1.25,135.10033 -0.6875,0.0552 -15.30923,0.0149 -32.49273,-0.0896 l -31.24273,-0.18993 -0.25727,65.3396 -0.25727,65.33962 -32.5,0.5 -32.5,0.5 -0.25388,125.25 -0.25387,125.25 h 31.31275 c 34.84177,0 35.09441,0.044 34.52371,6.0441 l -0.32871,3.4559 -32.75,0.2637 -32.75,0.2636 v 97.9864 97.9863 h -64.89301 c -58.25145,0 -64.95514,0.1619 -65.5,1.5818 -0.33385,0.87 -0.60699,15.495 -0.60699,32.5 v 30.9182 h -4.5 -4.5 v -32.5052 -32.5051 l -93.25,0.2551 -93.25,0.2552 v 92.5 92.5 l 60.25,0.2578 60.25,0.2578 v -60.5239 -60.5238 l -27.25,0.266 -27.25,0.2661 -0.26392,32.3042 -0.26393,32.3042 -4.73607,-0.3042 -4.73608,-0.3042 -0.26232,-36.75 c -0.14428,-20.2125 0.0807,-36.7687 0.5,-36.7915 0.41928,-0.023 17.18732,-0.073 37.26232,-0.112 l 36.5,-0.071 0.5,64.862 0.5,64.8621 h 125.5 125.5 l 0.28125,-25.5 c 0.15469,-14.025 0.0336,-26.5125 -0.26905,-27.75 l -0.5503,-2.25 H 319.44635 221.9654 v -4.5047 -4.5047 l 102.75,0.2547 102.75,0.2547 0.26385,32.25 0.26386,32.25 h 28.48614 28.48615 v -31.8892 c 0,-28.9162 0.16315,-32.082 1.75,-33.9574 2.70716,-3.1993 6.37704,-3.6279 9.56849,-1.1175 l 2.73193,2.1489 -0.27521,34.4081 c -0.15137,18.9244 -0.007,34.4078 0.3198,34.4075 0.32726,-2e-4 1.4095,-0.9004 2.40499,-2.0004 1.7071,-1.8863 3.07997,-2 24.15499,-2 h 22.34501 v -93 -93 h -32.48615 -32.48614 l -0.26386,-32.25 -0.26385,-32.25 -27.25,-0.2661 -27.25,-0.266 v 60.5966 60.5967 l 31.25,-0.1693 c 17.1875,-0.093 31.8125,-0.1294 32.5,-0.081 0.81784,0.058 1.25,1.7825 1.25,4.988 v 4.8993 l -4.75,0.4357 c -2.6125,0.2396 -5.1775,0.06 -5.7,-0.3993 -0.5225,-0.4593 -44.735,-0.835 -98.25,-0.835 h -97.3 v -4.4928 -4.4927 l 65.25,-0.2573 65.25,-0.2572 0.18005,-65 c 0.099,-35.75 0.21153,-79.7622 0.25,-97.8048 l 0.07,-32.8048 4.75,0.3048 4.75,0.3048 0.26383,32.2362 0.26384,32.2361 32.23616,0.2639 32.23617,0.2638 0.5,32 0.5,32 26.82752,0.2665 26.82752,0.2665 -0.26402,-33.6563 -0.26401,-33.6563 2.29728,-1.8602 c 2.9429,-2.383 6.23032,-2.365 9.21493,0.05 l 2.36078,1.9106 0.30003,33.5894 0.30004,33.5895 h 25.94996 25.94997 v -60.5 -60.5 h -28.77749 c -23.44328,0 -29.159,0.2672 -30.83565,1.4416 -1.79982,1.2606 -2.42395,1.249 -4.97251,-0.093 -2.4816,-1.3067 -7.51753,-1.4837 -33.91435,-1.1916 l -31,0.3431 -0.25469,-102.75 c -0.20286,-81.83881 6.5e-4,-102.76679 1,-102.83251 0.69008,-0.0454 15.20469,-0.15787 32.25469,-0.25 l 31,-0.16749 0.5,-32.5 0.5,-32.5 h 4.5 4.5 l 0.26203,37.75 0.26202,37.75 h -32.5172 -32.51721 l 0.25518,92.75 0.25518,92.75 59.75,0.2132 59.75,0.2133 v -31.7633 c 0,-23.3714 0.31704,-32.0802 1.2,-32.9632 1.36131,-1.3613 5.66854,-1.5702 7.56425,-0.3669 1.00298,0.6367 1.31297,21.9198 1.5,102.9849 l 0.23575,102.1823 -31.55,-2e-4 c -23.20571,-10e-5 -31.86737,0.3173 -32.75,1.1999 -0.91591,0.9159 -1.2,22.9351 -1.2,93.0078 v 91.8078 l 60.25,-0.2578 60.25,-0.2578 v -27.5 -27.5 l -32.75,-0.2637 -32.75,-0.2636 v -3.9673 c 0,-3.2852 0.38683,-4.0615 2.25,-4.5152 1.2375,-0.3014 18.16731,-0.4224 37.62179,-0.2691 l 35.37179,0.2789 0.0259,37 0.0259,37 -331.1477,0.2515 -331.14773,0.2525 z m 717.75724,559.68282 -0.25724,-65.2517 -65,-0.5 -65,-0.5 v -4 -4 l 32.5,-0.5 32.5,-0.5 v -158 -158 l -60.25,-0.2578 c -53.14151,-0.2274 -60.25,-0.08 -60.25,1.25 0,1.0497 -1.0386,1.5078 -3.41821,1.5078 -1.88002,0 -4.13002,0.2731 -5,0.607 -1.35095,0.5184 -1.58179,-0.4302 -1.58179,-6.5 0,-4.95939 0.37773,-7.14074 1.25,-7.21866 0.6875,-0.0614 15.3125,-0.0173 32.5,0.0981 l 31.25,0.20976 v -29.07336 -29.07335 l 2.5694,0.97689 c 1.41317,0.53728 3.65608,0.70414 4.98425,0.37079 l 2.41485,-0.60609 0.26575,28.35446 0.26575,28.35446 27.59619,0.26555 27.5962,0.26555 0.61653,-11.50434 c 0.33909,-6.32739 0.34683,-35.69688 0.0172,-65.26555 l -0.59935,-53.76121 2.1208,2.63762 c 1.16644,1.45069 3.25292,2.92177 4.63661,3.26905 l 2.51582,0.63143 v 26.78791 26.78791 l 2.68785,0.94526 2.68785,0.94527 -0.19217,15.99777 c -0.1057,8.79878 -0.47896,27.12518 -0.82946,40.72534 -0.59046,22.91034 -0.77386,24.77094 -2.49568,25.31734 -1.78271,0.5658 -1.85839,2.9238 -1.85839,57.9 0,48.5992 0.21837,57.4914 1.43665,58.5025 1.08324,0.899 17.13408,1.1567 65.25,1.0476 35.09734,-0.08 78.55085,-0.111 96.56335,-0.07 l 32.75,0.075 v 4.5 4.5 l -31.25,0.015 c -17.1875,0.01 -31.8161,0.3747 -32.50801,0.814 -0.99238,0.63 -1.20353,13.3481 -1,60.2347 l 0.25801,59.436 65,0.5 65,0.5 0.3042,4.7363 0.3043,4.7362 -32.80427,0.2638 -32.80423,0.2637 -0.26393,32.3068 -0.26393,32.3068 -4.23607,-0.3068 -4.23607,-0.3068 -0.26385,-32.25 -0.26386,-32.25 H 809.45155 743.9654 v -4.393 c 0,-3.0834 0.47156,-4.574 1.58179,-5 0.86998,-0.3339 15.49849,-0.607 32.5078,-0.607 h 30.92602 l -0.2578,-60.25 -0.25781,-60.25 -58.30065,-0.2581 c -39.0514,-0.1728 -58.94426,0.086 -60.25,0.7852 -1.85552,0.993 -1.94861,2.2811 -1.93404,26.7581 0.008,14.1431 0.3685,26.2709 0.80017,26.9505 0.59036,0.9294 8.70255,1.3012 32.73469,1.5 l 31.94983,0.2643 0.3192,3.8982 c 0.20001,2.4426 -0.17339,4.2106 -1,4.7347 -0.72556,0.4601 -15.33356,0.8434 -32.46221,0.8518 -27.46676,0.014 -31.21466,0.202 -31.75,1.5971 -0.79652,2.0757 -0.79115,115.7747 0.006,117.8509 0.55244,1.4397 6.85696,1.5891 64.25,1.523 35.00059,-0.04 64.19371,-0.047 64.87359,-0.015 0.94903,0.045 1.29743,7.5495 1.5,32.3089 l 0.26385,32.25 127.91967,0.2538 c 113.7332,0.2257 128.1801,0.083 130.268,-1.2848 2.1103,-1.3827 2.408,-1.3831 2.9373,0 0.5124,1.3355 4.7333,1.5349 32.482,1.5349 h 31.893 v 4.5 4.5 h -168 -167.99997 v -32.5161 -32.516 l -27.25,0.266 -27.25,0.2661 -0.25781,60.2522 -0.2578,60.2522 223.75778,-0.2522 223.7578,-0.2522 0.2552,-92.6497 0.2551,-92.6497 4.4949,-0.3575 4.4948,-0.3575 v 93.2572 93.2572 h 60.5 60.5 v -28 -28 h -32.5575 -32.5575 l 0.3075,-4.25 0.3075,-4.25 32.2539,-0.2639 32.2538,-0.2638 -0.2538,-125.7362 -0.2543,-125.7396 -56.2658,-0.2583 -56.2659,-0.2584 0.2659,27.7584 0.2658,27.7583 28.5,0.5 28.5,0.5 -0.039,5.25 c -0.021,2.8875 -0.1336,34.275 -0.25,69.75 l -0.211,64.5 h -4.4927 -4.4927 l -0.2573,-64.75 -0.2573,-64.75 -45.5,-0.6535 c -25.025,-0.3594 -52.132,-0.8878 -60.2378,-1.1742 -8.5585,-0.3024 -14.9774,-0.1332 -15.309,0.4035 -0.332,0.5371 -15.2295,0.9242 -35.5689,0.9242 h -34.9977 l 1.5567,-2.2225 c 2.3883,-3.4098 1.9539,-7.3199 -1.0782,-9.7049 -1.4491,-1.1399 -3.1846,-2.0726 -3.8565,-2.0726 -0.8206,0 -1.4429,-2.9306 -1.8956,-8.9284 -1.0419,-13.8007 -0.6526,-79.4836 0.5308,-89.5716 0.5807,-4.95 0.9972,-16.3125 0.9257,-25.25 -0.084,-10.4913 0.2322,-16.25 0.8924,-16.25 0.5625,0 2.2568,1.3851 3.7651,3.0779 2.6834,3.0117 2.8839,3.0637 9.3165,2.4177 l 6.5741,-0.6602 -0.4044,3.4642 c -0.2224,1.9053 0.014,3.7225 0.5245,4.0383 0.5108,0.3157 0.7315,1.9185 0.4903,3.5618 -0.3446,2.3484 -1.0045,3.0533 -3.0832,3.294 l -2.6448,0.3063 -1.7291,16.5 c -1.9191,18.3131 -2.1045,30.0858 -1.1356,72.1229 l 0.6598,28.6229 22.1024,0.6193 c 12.1564,0.3406 38.64,0.9087 58.8525,1.2624 l 36.75,0.6431 v -30.6353 c 0,-21.939 0.3178,-30.6353 1.1196,-30.6353 0.8187,0 0.9216,-9.1088 0.3829,-33.8829 -0.7317,-33.6567 -0.7225,-33.8971 1.3804,-36 2.687,-2.687 7.4916,-2.7426 10.1171,-0.1171 1.6683,1.6683 2.0234,3.451 2.1413,10.75 0.078,4.8125 0.4153,20.225 0.75,34.25 l 0.6087,25.5 h 56.5 56.5 l 0.2519,-259.25 0.2519,-259.25 h 4.4981 4.4981 l 0.01,259.75 c 0,142.8625 0.033,335.125 0.062,427.25 l 0.053,167.5 -298.5546,0.2517 -298.55452,0.2516 -0.25724,-65.2516 z m 555.88116,46.7483 c -0.3166,-0.825 -1.2648,-1.5 -2.107,-1.5 -0.8423,0 -1.5314,-0.6451 -1.5314,-1.4336 0,-0.8205 -1.176,-1.5689 -2.75,-1.75 -2.1761,-0.2504 -2.8172,-0.9026 -3.0721,-3.1255 -0.1772,-1.5449 -0.9647,-3.0556 -1.75,-3.3569 -2.0705,-0.7946 -2.0072,-12.1745 0.072,-12.9724 0.825,-0.3166 1.5078,-1.5399 1.5173,-2.7186 0.022,-2.7187 4.101,-6.643 6.905,-6.643 1.1773,0 2.3995,-0.675 2.7161,-1.5 0.8085,-2.107 14.8899,-2.1717 15.6956,-0.072 0.3013,0.7853 1.812,1.5728 3.3569,1.75 2.1913,0.2513 2.8764,0.9035 3.1152,2.9656 0.1737,1.4993 1.5804,3.6199 3.25,4.8995 2.6519,2.0324 2.9397,2.8116 2.9016,7.8566 -0.038,4.96 -0.3806,5.8809 -3,8.0535 -1.9872,1.6482 -2.9577,3.3708 -2.9577,5.25 0,2.4474 -0.3788,2.7969 -3.0314,2.7969 -1.7721,0 -3.2705,0.6231 -3.607,1.5 -0.4387,1.1434 -2.3076,1.5 -7.8616,1.5 -5.554,0 -7.4229,-0.3566 -7.8616,-1.5 z m -656.6384,-6.5 c -0.5887,-1.1 -2.0139,-2 -3.16711,-2 -1.1532,0 -3.61237,-1.607 -5.46481,-3.5712 -2.77954,-2.9472 -3.36808,-4.3451 -3.36808,-8 0,-2.8715 0.43953,-4.432 1.25,-4.4379 0.6875,-0.01 2.31315,-1.355 3.61256,-3 1.29941,-1.645 3.24405,-2.9909 4.32143,-2.9909 1.07738,0 2.63387,-0.675 3.45887,-1.5 1.00541,-1.0054 3.511,-1.5 7.59902,-1.5 h 6.09903 l 5.82954,6.0133 c 3.93107,4.055 5.82955,6.8231 5.82955,8.5 0,3.0193 -7.09579,10.4867 -9.96482,10.4867 -1.08065,0 -2.44648,0.9 -3.03518,2 -0.86861,1.623 -2.09382,2 -6.5,2 -4.40618,0 -5.63139,-0.377 -6.5,-2 z m -519.75,-56.0925 -5.25,-5.0493 v -7.3221 c 0,-5.5861 0.35565,-7.4586 1.5,-7.8977 0.825,-0.3166 1.5,-1.5568 1.5,-2.756 0,-1.1992 1.5527,-3.6883 3.45043,-5.5314 4.77513,-4.6375 9.99741,-4.6959 14.43091,-0.1612 1.71526,1.7544 3.11866,4.0089 3.11866,5.0098 0,1.001 0.9,2.5906 2,3.5324 1.50866,1.2918 2,2.95 2,6.7497 0,3.9542 -0.43,5.3057 -2,6.2862 -1.1,0.687 -2,2.1572 -2,3.2672 0,1.11 -1.42231,3.5812 -3.16068,5.4915 -4.82248,5.2996 -8.82828,4.8835 -15.58932,-1.6191 z m 944.7026,-43.7448 c -2.2027,-1.7836 -2.3213,-2.7979 -4.0641,-34.75 -0.9874,-18.102 -1.8163,-33.7002 -1.8419,-34.6627 -0.043,-1.6157 -1.8501,-1.75 -23.5466,-1.75 h -23.5 v 32.5122 32.5121 l -37.25,-0.2621 -37.25,-0.2622 -0.3075,-4.25 -0.3075,-4.25 h 31.4757 c 17.3117,0 32.1701,-0.2664 33.0187,-0.5921 1.3662,-0.5242 1.5422,-7.2393 1.5366,-58.6116 l -0.01,-58.0196 -6.3028,0.675 c -5.8068,0.6218 -6.5418,0.4739 -9.3391,-1.8799 l -3.0363,-2.5549 -55.86571,-0.2585 -55.86609,-0.2584 v -4.5 -4.5 l 32,-0.5 32,-0.5 0.2578,-60.25 0.2578,-60.25 h -65.59113 c -52.04807,0 -65.49751,-0.2581 -65.13771,-1.25 0.24939,-0.6875 -0.18421,-2.818 -0.96356,-4.7344 -0.93071,-2.2886 -1.05772,-3.6041 -0.3701,-3.8333 0.68248,-0.2275 1.0469,-7.2819 1.0469,-20.2656 0,-18.3099 -0.14118,-19.915 -1.75,-19.895 -0.9625,0.012 -13.225,0.6772 -27.25,1.4783 -33.90817,1.9368 -34.57214,1.9279 -37,-0.5 -2.67184,-2.6718 -2.55749,-7.1315 0.25,-9.7497 2.08956,-1.9487 4.35509,-2.2107 31.77083,-3.6743 16.23646,-0.8668 30.51855,-1.576 31.73798,-1.576 h 2.21714 l 0.26202,-37.75 0.26203,-37.75 4.74269,-0.30449 4.74268,-0.3045 0.25732,64.8045 0.25731,64.80449 60.25,0.2578 60.25,0.2578 v -32.5078 c 0,-25.2793 0.278,-32.53294 1.25,-32.62085 0.6875,-0.0622 14.975,-0.0439 31.75,0.0406 16.775,0.0845 31.0443,-0.21744 31.7096,-0.67102 0.9274,-0.63227 1.1608,-14.70068 1,-60.29063 l -0.2096,-59.4659 -32.5,-0.5 -32.5,-0.5 v -4.5 -4.5 l 32.75,-0.26366 32.75,-0.26367 V 673.51634 613.53 h -25.9336 -25.9336 l -0.5833,10.25 c -0.3208,5.6375 -0.9132,20.47254 -1.3164,32.96676 -0.6021,18.65808 -1.0146,22.99777 -2.3084,24.2896 -1.355,1.35285 -6.5299,1.63721 -37.00001,2.03312 -19.48358,0.25316 -35.91982,0.12284 -36.52499,-0.2896 -3.10861,-2.11861 -3.34873,-5.13814 -2.71479,-34.13878 l 0.64036,-29.1111 h -10.00092 c -5.50051,0 -17.56563,-0.29834 -26.81138,-0.66299 l -16.81046,-0.66298 0.6378,8.41298 c 0.35079,4.62715 0.70387,18.43599 0.78462,30.68632 0.13262,20.1182 -0.0263,22.46458 -1.64204,24.25 -2.5826,2.85373 -7.82711,2.62073 -10.24667,-0.45523 -1.76092,-2.23865 -1.96828,-5.05522 -2.60947,-35.44382 -0.9617,-45.57939 -2.38172,-43.12428 24.94275,-43.12428 9.96628,0 23.59798,0.29452 30.29267,0.65449 11.29873,0.60753 12.06345,0.77463 10.657,2.32874 -1.71359,1.89351 -1.96311,5.77625 -0.51517,8.01677 0.73409,1.13593 0.97309,0.70015 0.98469,-1.79545 0.0183,-3.94596 3.79771,-8.20455 7.28129,-8.20455 1.2963,0 3.34175,0.91753 4.54546,2.03896 2.16056,2.01287 2.18856,2.43581 2.18856,33.06011 v 31.02116 l 22.25,-0.61931 c 12.2375,-0.34062 23.2625,-0.82625 24.5,-1.07917 2.24009,-0.45783 2.25,-0.54522 2.25,-19.83381 0,-16.39625 0.23318,-19.46344 1.5172,-19.95615 1.2934,-0.49633 1.4198,-2.40215 0.8574,-12.9223 l -0.6597,-12.3401 2.7774,-2.1847 c 3.5931,-2.82633 5.6754,-2.75593 9.3253,0.31531 l 2.9711,2.5 h 30.6007 30.6008 l 0.2549,97.75 0.2549,97.75 25.5,0.28125 c 14.025,0.15469 26.5268,0.03 27.7818,-0.27703 l 2.2818,-0.55828 -0.6047,-26.72297 c -0.3326,-14.69763 -0.5424,-42.69797 -0.4662,-62.22297 0.1329,-34.06506 0.2196,-35.58659 2.146,-37.64229 1.5241,-1.62636 1.6889,-2.26964 0.6844,-2.67105 -0.7277,-0.29082 1.8269,-0.49687 5.6769,-0.45788 3.85,0.039 5.7163,0.26281 4.1474,0.49738 l -2.8526,0.42649 2.2639,2.40985 2.264,2.40985 -0.6312,34.64331 c -0.522,28.6508 -0.8958,35.04726 -2.1613,36.97864 -1.2677,1.9347 -1.5302,6.51012 -1.5302,26.67052 0,17.59403 0.3324,24.6676 1.2,25.53518 0.9085,0.90847 16.8344,1.2 65.5548,1.2 h 64.3548 l -0.3048,4.75 -0.3048,4.75 -97.75,0.25492 -97.75,0.25493 V 900.5349 991.53 h -4.4919 -4.492 l -0.258,-58.25 -0.2581,-58.25 -27.75,-0.2658 -27.75,-0.2658 v 93.0804 93.0804 l 33.511,-0.2096 c 31.0385,-0.1942 33.6578,-0.077 35.5,1.5904 3.119,2.8226 2.6371,7.8379 -1.0289,10.7069 l -3.018,2.3619 0.268,24.9606 0.2679,24.9606 24,0.2759 c 17.3373,0.1993 24.6331,-0.06 26.2805,-0.9353 2.6176,-1.3902 11.4058,-0.7439 56.2195,4.1348 26.5456,2.89 27.5781,3.0831 29.75,5.565 1.2375,1.4141 2.25,3.4665 2.25,4.5608 0,2.5939 -4.3397,6.8988 -6.9545,6.8988 -2.0111,0 -2.0455,0.463 -2.0455,27.5 v 27.5 h -4.5 -4.5 v -27.9547 -27.9547 l -3.25,-0.541 c -1.7875,-0.2975 -14.275,-1.6739 -27.75,-3.0587 -13.475,-1.3847 -26.3,-2.7749 -28.5,-3.0892 -3.7785,-0.5398 -3.8843,-0.4868 -1.9118,0.9568 1.9722,1.4433 2.1667,3.1297 3.5,30.3349 0.7765,15.8436 1.3527,30.3567 1.2805,32.2513 -0.2345,6.1494 -6.6465,9.0802 -11.4161,5.218 z M 1232.5345,1050.03 c -1.7897,-2.2448 -3.6474,-3.5 -5.1798,-3.5 -1.9685,0 -2.3893,-0.5095 -2.3893,-2.893 0,-1.6491 -0.645,-3.1405 -1.5,-3.4686 -1.1374,-0.4365 -1.5,-2.2829 -1.5,-7.6384 0,-5.3555 0.3626,-7.2019 1.5,-7.6384 0.825,-0.3166 1.5,-1.6524 1.5,-2.9686 0,-3.1153 3.3325,-6.393 6.5,-6.393 1.5556,0 2.5,-0.5667 2.5,-1.5 0,-1.1769 1.377,-1.5 6.393,-1.5 4.7602,0 6.54,0.3831 6.9686,1.5 0.3166,0.825 1.7148,1.5 3.107,1.5 2.0846,0 2.5389,0.4854 2.5737,2.75 0.028,1.7937 1.0709,3.603 3,5.2031 2.7487,2.2797 2.9577,2.9357 2.9577,9.2814 0,5.1471 -0.3693,6.97 -1.5,7.4039 -0.855,0.3281 -1.5,1.8195 -1.5,3.4686 0,2.3055 -0.4425,2.893 -2.179,2.893 -1.213,0 -3.6003,1.5517 -5.3849,3.5 -2.8341,3.0942 -3.7781,3.5 -8.1411,3.5 -4.4422,0 -5.2142,-0.3497 -7.7259,-3.5 z m -96.5691,-58 c 0,-0.825 0.4019,-1.5 0.893,-1.5 0.4912,0 1.152,0.675 1.4686,1.5 0.3507,0.9137 0,1.5 -0.893,1.5 -0.8077,0 -1.4686,-0.675 -1.4686,-1.5 z m 130.989,-83.25 c -0.01,-16.9125 -0.2879,-32.4249 -0.6263,-34.4721 l -0.6153,-3.72205 -30.1237,-0.46086 c -29.8619,-0.45687 -96.5465,-2.00854 -137.2929,-3.19464 l -21.1692,-0.61623 -0.9969,-5.64206 c -0.7424,-4.20213 -0.6894,-5.9618 0.2078,-6.89487 0.965,-1.00365 15.7159,-0.93966 74.166,0.3217 40.1288,0.86598 82.7528,1.784 94.7198,2.04004 l 21.7584,0.46553 -0.2584,-56.28723 -0.2583,-56.28723 -65.25,-0.25724 -65.25,-0.25724 -0.1043,-31.74276 c -0.057,-17.45852 -0.2857,-33.54276 -0.5073,-35.74276 -0.2216,-2.2 -0.3371,-4.45 -0.2567,-5 0.081,-0.55 0.3207,-15.9625 0.5337,-34.25 l 0.3874,-33.25 h 4.4736 4.4736 l 0.1429,32.25 c 0.079,17.7375 0.1911,46.875 0.25,64.75 l 0.1071,32.5 60.75,0.25775 60.75,0.25774 V 576.35874 c 0,-118.49298 0.2912,-157.99209 1.183,-160.45834 0.9014,-2.49266 0.9065,-3.87858 0.022,-5.821 l -1.1616,-2.5494 h 32.4785 32.4786 v -60.5 -60.5 h -2.2 c -1.7111,0 -1.9333,-0.26667 -1,-1.2 0.66,-0.66 1.2,-2.65844 1.2,-4.44098 0,-1.78254 0.45,-3.5191 1,-3.85902 0.6551,-0.40485 1,-32.67243 1,-93.54516 V 90.55771 l -32.25,-0.26386 -32.2505,-0.26385 -0.3068,-4.23607 -0.3068,-4.23607 32.3068,-0.26393 32.3068,-0.26393 0.2658,-27.75 0.2658,-27.75 h -60.5236 -60.5236 l 0.2578,60.25 0.2578,60.25 31.729,0.0623 c 17.4509,0.0343 32.0198,0.35312 32.3752,0.70852 1.1098,1.10986 1.0073,73.72075 -0.1042,73.80504 -0.55,0.0417 -29.208,0.0101 -63.6844,-0.0703 -44.1242,-0.10287 -63.296,0.18118 -64.75,0.95933 -2.0047,1.07285 -2.0656,1.85872 -2.0656,26.63603 0,15.68651 0.3991,26.27636 1.0352,27.46481 0.9843,1.83918 2.3652,1.93426 28.0923,1.93426 25.5428,0 27.1993,-0.11193 29.5996,-2 2.4338,-1.91437 4.0568,-2 37.9078,-2 34.0318,0 35.4405,0.0754 37.3651,2 1.1111,1.11111 2,3.33333 2,5 0,1.66667 -0.8889,3.88889 -2,5 -2.3594,2.35939 -6.511,2.42017 -91.2365,1.33563 l -51.7366,-0.66227 -0.2634,-32.58668 -0.2635,-32.58667 -32.25,-0.26385 -32.25,-0.26386 V 216.01615 211.53 h 32.5158 32.5158 l -0.2658,-27.75 -0.2658,-27.75 h -60 -60 l -0.2631,32.5 -0.2631,32.5 -87.62695,-0.30993 c -48.19484,-0.17046 -87.96092,0.0545 -88.36906,0.5 -0.40815,0.44546 -0.26693,12.19425 0.3138,26.10842 1.03872,24.88751 1.02256,25.33181 -0.99521,27.34958 -1.95088,1.95087 -3.58393,2.08287 -33.42374,2.70151 -47.03692,0.97517 -51.54118,0.80821 -54.56783,-2.02267 l -2.48783,-2.32691 0.28284,-26.5 c 0.22475,-21.05769 0.0212,-26.44301 -0.99098,-26.2225 -3.34691,0.72911 -132.64553,0.0858 -133.39502,-0.66368 -0.47273,-0.47273 -0.71423,-2.37923 -0.53666,-4.23666 l 0.32284,-3.37716 66.62359,-0.25705 66.62359,-0.25704 0.79418,3.25704 c 0.71858,2.94701 0.85003,2.65335 1.38088,-3.08492 0.46557,-5.03271 1.07313,-6.73587 2.94301,-8.25 3.3448,-2.70845 7.70106,-2.43263 10.81868,0.68499 l 2.59302,2.59302 -0.72553,27.87749 -0.72554,27.87748 6.33706,-0.46554 c 3.48538,-0.25604 17.05971,-0.74422 30.16517,-1.08484 l 23.82812,-0.6193 -0.5515,-4.63566 c -0.30332,-2.54962 -0.84671,-13.31968 -1.20753,-23.93347 -0.65256,-19.19588 -0.64386,-19.31074 1.6477,-21.75 2.86126,-3.04567 7.68711,-3.23744 11.23525,-0.44647 2.51228,1.97615 3.78608,2.00196 86.38486,1.75 l 83.83499,-0.25573 0.1363,-32 c 0.075,-17.6 0.1875,-46.7375 0.25,-64.75 l 0.1137,-32.75 h 4.4862 4.4861 l 0.2639,32.25 0.2638,32.25 h 60 60 l 0.2639,-32.25 0.2638,-32.25 h 4.4862 4.4861 l 0.133,32.25 c 0.073,17.7375 0.1856,46.875 0.25,64.75 l 0.117,32.5 h 60.5 60.5 l 0.2813,-25.5 c 0.1546,-14.025 0.034,-26.5125 -0.2691,-27.75 l -0.5503,-2.25 h -31.981 -31.9809 V 90.54366 25.55733 l -32.75,-0.26367 -32.75,-0.26366 -0.305,-4.7547 -0.305,-4.7547 102.6095,0.2547 102.6095,0.2547 -0.038,200 c -0.021,110 -0.045,200.33127 -0.054,200.73615 -0.01,0.40488 -14.5294,0.85488 -32.2669,1 l -32.25,0.26385 -0.2199,219.43381 c -0.1313,131.06868 0.1474,219.87636 0.6922,220.53277 2.4177,2.91315 2.8728,6.2773 1.238,9.15113 -1.4115,2.48121 -1.6903,7.71779 -2.0041,37.63229 l -0.3645,34.75 h -4.4209 -4.4208 l -0.011,-30.75 z m -297.989,6.375 c 0,-0.7562 -1.35,-1.645 -3,-1.975 -1.7596,-0.3519 -3,-1.2306 -3,-2.125 0,-0.8387 -0.45,-1.525 -1,-1.525 -0.55,0 -1.9,-0.9 -3,-2 -2.4875,-2.4875 -2.8632,-10 -0.5,-10 0.825,0 1.5,-0.4716 1.5,-1.048 0,-1.5436 5.2364,-5.8837 7.143,-5.9204 0.9037,-0.017 1.902,-0.7066 2.2186,-1.5316 0.4362,-1.1365 2.2794,-1.5 7.607,-1.5 6.87,0 7.1232,0.092 11.0314,4 2.2,2.2 4,4.45 4,5 0,0.55 0.675,1 1.5,1 2.3632,0 1.9875,7.5125 -0.5,10 -1.1,1.1 -2.3975,2 -2.8834,2 -0.4858,0 -1.1187,0.9 -1.4063,2 -0.3462,1.3236 -1.3641,2 -3.0097,2 -1.3676,0 -2.7456,0.675 -3.0622,1.5 -0.7942,2.0695 -13.6384,2.1872 -13.6384,0.125 z M 417.76623,805.28 c -0.16546,-38.0875 -0.14019,-69.8125 0.0562,-70.5 0.27614,-0.96693 7.69265,-1.25 32.75,-1.25 h 32.39297 v -65.05479 -65.05479 l 4.75,0.30479 4.75,0.30479 0.25608,31.5 c 0.22176,27.27697 0.46676,31.65644 1.8275,32.66691 1.4212,1.05536 1.40504,1.42083 -0.16909,3.82325 -1.58111,2.41308 -1.71897,5.80894 -1.50543,37.08309 L 493.10953,743.53 H 460.53747 427.9654 v 64.3 c 0,48.67778 -0.29155,64.5915 -1.2,65.5 -0.66,0.66 -2.88713,1.2 -4.94917,1.2 h -3.74918 z m 457.96742,69 c -0.12746,-0.1375 -0.46496,-29.5 -0.75,-65.25 l -0.51825,-65 -65.25,-0.25724 -65.25,-0.25724 V 679.1452 c 0,-57.85598 0.16234,-64.50504 1.60418,-65.70166 2.81882,-2.33942 3.50927,-5.70625 1.94028,-9.46137 -0.79332,-1.89869 -1.91177,-3.45217 -2.48544,-3.45217 -0.70928,0 -1.12559,-18.79897 -1.30103,-58.75 l -0.25799,-58.75 -65,-0.5 -65,-0.5 -0.26217,-37.25 -0.26217,-37.25 h 5.01217 5.01217 v 30.91821 c 0,17.00502 0.27314,31.63002 0.60699,32.5 0.53305,1.38912 3.94365,1.58179 28,1.58179 h 27.39301 v -32.5 -32.5 h 4.5 4.5 v 30.91821 c 0,17.00502 0.27314,31.63002 0.60699,32.5 0.54486,1.4199 7.24855,1.58179 65.5,1.58179 h 64.89301 v 32.5 32.5 h 60.5 60.5 v -65 -65 h 33.0078 33.0078 l -0.2578,-60.25 -0.2578,-60.25 -26.5,-0.26586 -26.5,-0.26586 V 282.01414 277.53 l 26.5,-0.0728 c 30.6898,-0.0843 100.2563,-0.0755 101.0163,0.0128 0.284,0.033 0.345,14.01432 0.1356,31.06965 -0.2901,23.6294 -0.086,31.36437 0.8561,32.5 1.0803,1.30166 13.5006,1.49032 98.1144,1.49032 h 96.8776 v 4.5 4.5 h -96.8 c -73.9556,0 -97.0832,0.2832 -98,1.2 -0.882,0.88204 -1.2,9.46511 -1.2,32.39301 0,27.52146 -0.1862,31.26446 -1.5818,31.8 -2.6968,1.03486 -6.457,0.66941 -6.974,-0.6778 -0.2712,-0.70664 -0.5945,-30.06914 -0.7186,-65.25 L 1070.4654,287.03 h -27.5 -27.5 l -0.2549,97.75 -0.2549,97.75 h -4.4813 -4.4812 l -0.2638,-32.25 -0.2639,-32.25 -27.75,-0.26582 -27.75,-0.26582 V 477.51418 537.53 h 60.4862 60.4861 l 0.2638,-32.25 0.2639,-32.25 h 4 4 l 0.2639,32.25 0.2638,32.25 h 60.9862 60.9861 v -26.3 c 0,-19.12222 -0.3275,-26.6275 -1.2,-27.5 -0.8701,-0.87009 -8.1556,-1.2 -26.5,-1.2 h -25.3 v -5 -5 h 24.5 24.5 v -32.54545 -32.54546 l 2.4545,-2.45454 c 2.951,-2.95096 6.8386,-3.16145 9.4864,-0.51363 1.9073,1.90726 1.9319,4.27933 1.4184,136.75 -0.2873,74.145 -0.6966,135.37158 -0.9095,136.05908 -0.2258,0.72928 -2.0664,1.25 -4.4184,1.25 h -4.0314 v -64.89301 c 0,-58.25145 -0.1619,-64.95514 -1.5818,-65.5 -0.87,-0.33385 -27.8149,-0.60699 -59.8775,-0.60699 -47.3967,0 -58.503,0.2496 -59.4038,1.33502 -0.7457,0.89857 -1.1944,11.60533 -1.3724,32.75 l -0.2645,31.41498 h -4 -4 l -0.2645,-31.41498 c -0.1781,-21.15485 -0.6265,-31.85123 -1.373,-32.75071 -0.9106,-1.09721 -17.4988,-1.32691 -92.8972,-1.28635 -99.26377,0.0534 -92.9653,-0.28765 -92.9653,5.03383 0,1.32945 -0.69904,1.91821 -2.27749,1.91821 -1.25263,0 -3.27763,0.70052 -4.5,1.5567 -2.19781,1.53941 -2.22251,1.50681 -2.22251,-2.93261 0,-3.68398 -0.37716,-4.60902 -2.10246,-5.15661 -1.15636,-0.36701 -15.44386,-0.52146 -31.75,-0.34322 -16.30615,0.17825 -30.21004,-0.0284 -30.89754,-0.4591 -0.95756,-0.59997 -1.25,-8.25576 -1.25,-32.72418 V 482.53 h -27.5 -27.5 v 125.49276 125.49276 l 65.25,0.25724 65.25,0.25724 -0.2945,31.5 c -0.16197,17.325 0.0856,32.05606 0.55017,32.73568 0.63429,0.92792 8.80229,1.30152 32.7945,1.5 L 949.4654,800.03 v 4.5 4.5 l -32.75,0.26366 -32.75,0.26367 V 842.04366 874.53 h -4 c -2.2,0 -4.10429,-0.1125 -4.23175,-0.25 z m 155.48175,-83.69356 c -1.2375,-1.03236 -2.25,-2.36739 -2.25,-2.96673 0,-0.59934 -0.6447,-1.08971 -1.4326,-1.08971 -0.7879,0 -1.7183,-0.9 -2.0674,-2 -0.3491,-1.1 -1.2795,-2 -2.0674,-2 -0.7879,0 -1.4326,-0.675 -1.4326,-1.5 0,-0.825 -0.675,-1.5 -1.5,-1.5 -1.1795,0 -1.5,-1.38889 -1.5,-6.5 0,-5.11111 0.3205,-6.5 1.5,-6.5 0.825,0 1.5,-0.675 1.5,-1.5 0,-0.825 0.5625,-1.50777 1.25,-1.51728 1.5245,-0.0211 5.75,-4.33746 5.75,-5.87367 0,-0.60998 0.6269,-1.10905 1.393,-1.10905 0.7662,0 1.652,-0.675 1.9686,-1.5 0.8046,-2.09668 17.1503,-2.18243 18.3387,-0.0962 0.4398,0.77209 1.9247,1.55959 3.2997,1.75 1.7917,0.24812 2.5933,1.05452 2.8294,2.84621 0.1812,1.375 1.8687,3.88978 3.75,5.58839 3.1277,2.82391 3.4206,3.57323 3.4206,8.75 0,3.47888 -0.4276,5.66161 -1.1091,5.66161 -1.5362,0 -5.8526,4.22551 -5.8736,5.75 -0.01,0.6875 -0.5798,1.26906 -1.2673,1.29235 -0.6875,0.0233 -2.3539,1.37329 -3.7031,3 -2.3515,2.83516 -2.7863,2.95627 -10.5,2.92438 -6.3719,-0.0263 -8.5152,-0.42397 -10.2969,-1.91029 z m -419.94424,-48.4695 -2.80576,-2.41306 -0.27123,-65.0657 c -0.25967,-62.28947 -0.19191,-65.14504 1.58799,-66.92494 1.7331,-1.7331 4.83515,-1.90704 45.72541,-2.56404 42.0685,-0.67594 43.97052,-0.6273 46.41201,1.18686 3.27783,2.4356 3.81137,7.02696 1.19241,10.26124 l -1.95431,2.41347 -39.09614,0.37164 -39.09614,0.37165 v 22.2484 c 0,12.23662 0.29268,24.38374 0.6504,26.99361 l 0.65041,4.74521 33.09959,-0.30995 c 18.20478,-0.17047 34.0637,0.0219 35.24205,0.42761 3.10874,1.07022 4.78242,5.64447 3.27544,8.95193 -0.65383,1.43501 -1.91534,2.97136 -2.80334,3.41412 -0.888,0.44275 -16.91455,1.03001 -35.61455,1.30501 l -34,0.5 -0.5,25.5 c -0.275,14.025 -0.86226,26.22655 -1.30501,27.11455 -0.77004,1.54441 -4.79862,3.88545 -6.68628,3.88545 -0.49345,0 -2.15978,-1.08588 -3.70295,-2.41306 z M 975.9654,663.48225 c 0,-1.21922 -4.8871,-5.95225 -6.146,-5.95225 -0.4697,0 -0.854,-1.35 -0.854,-3 0,-1.65 -0.45,-3 -1,-3 -0.55,0 -1,-2.475 -1,-5.5 0,-3.025 0.45,-5.5 1,-5.5 0.55,0 1,-1.575 1,-3.5 0,-2.83333 0.381,-3.5 2,-3.5 1.3333,0 2,-0.66667 2,-2 0,-1.11111 0.6667,-2 1.5,-2 0.825,0 1.5,-0.675 1.5,-1.5 0,-1.16753 1.3368,-1.5 6.0314,-1.5 4.4387,0 6.1834,0.39609 6.607,1.5 0.3166,0.825 1.2024,1.5 1.9686,1.5 0.7661,0 1.393,0.9 1.393,2 0,1.11111 0.6667,2 1.5,2 0.825,0 1.5,0.8632 1.5,1.91821 0,2.9805 1.078,5.08179 2.607,5.08179 1.0036,0 1.393,1.38779 1.393,4.96482 0,3.94136 -0.4123,5.18546 -2,6.03518 -1.18,0.63151 -2,2.09382 -2,3.56657 0,1.37291 -0.675,2.75522 -1.5,3.0718 -0.825,0.31659 -1.5,1.20246 -1.5,1.96862 0,0.76615 -0.6269,1.39301 -1.393,1.39301 -0.7662,0 -1.652,0.675 -1.9686,1.5 -0.6836,1.78135 -12.6384,2.20914 -12.6384,0.45225 z m -426.75,-50.59079 c -0.99546,-0.42058 -1.25,-53.65979 -1.25,-261.44479 V 90.53 h -65 -65 v -4.5 -4.5 l 65,-0.20833 c 35.75,-0.11459 67.1375,-0.22709 69.75,-0.25 l 4.75,-0.0417 0.5,32.5 0.5,32.5 125.25,0.25388 125.25,0.25387 V 86.0287 25.51964 l -92.75,0.25518 -92.75,0.25518 -0.29097,24.5 c -0.16003,13.475 -0.0271,25.9625 0.29531,27.75 l 0.58629,3.25 h 65.01218 65.01219 l -0.3075,4.25 -0.3075,4.25 h -70 -70 L 613.20155,57.78 612.93769,25.53 H 487.44374 361.94979 l 0.2578,60.25 0.25781,60.25 64,0.18584 c 35.2,0.10222 64.5625,0.21472 65.25,0.25 0.82391,0.0423 1.25,1.76009 1.25,5.03941 0,4.70774 -0.12098,4.93625 -2.25,4.25 -1.2375,-0.39889 -15.47615,-0.58702 -31.64145,-0.41807 l -29.39146,0.30719 0.64201,15.19281 c 0.3531,8.35605 0.69824,22.7537 0.76696,31.99477 0.12078,16.2408 0.0482,16.88371 -2.17487,19.25 -2.52191,2.68446 -7.33247,3.24337 -10.03785,1.16625 -3.18782,-2.44753 -3.91334,-5.59774 -3.91334,-16.99165 0,-6.27271 -0.29656,-20.25975 -0.65902,-31.0823 l -0.65901,-19.67737 -25.59099,0.26656 -25.59098,0.26656 -0.25524,92.43775 c -0.20236,73.28916 0.005,92.60283 1,93.23468 0.69038,0.43832 15.2696,0.80384 32.39825,0.81226 27.46676,0.0135 31.21466,0.20203 31.75,1.5971 0.92844,2.41946 0.7227,6.22866 -0.37299,6.90583 -0.53898,0.33312 -44.60924,0.58649 -97.93389,0.56306 l -96.95392,-0.0426 -0.67252,2.11895 c -0.3699,1.16542 -0.51214,15.90111 -0.31611,32.74596 l 0.35642,30.62701 -68.88918,0.25693 c -50.05687,0.1867 -69.26119,-0.0518 -70.25,-0.87244 -0.74845,-0.62116 -1.36082,-2.87428 -1.36082,-5.00693 V 407.53 h 65.5 65.5 V 314.54905 221.5681 l -2.49309,-0.62572 c -1.3712,-0.34415 -2.2262,-1.05756 -1.9,-1.58537 0.3262,-0.5278 0.59309,-2.50479 0.59309,-4.39332 0,-2.71171 0.40114,-3.43369 1.90781,-3.43369 1.85881,0 1.90118,-1.54709 1.65,-60.25 L 221.4654,91.03 157.01983,90.77258 c -50.03212,-0.19984 -64.62205,-0.53532 -65.23468,-1.5 -0.43402,-0.68342 -0.79601,-2.68221 -0.80444,-4.44175 l -0.0153,-3.19918 68.75,-0.30082 c 37.8125,-0.16546 84.18728,-0.16598 103.05507,-0.001 l 34.30507,0.29967 -0.30507,4.20033 -0.30507,4.20037 -31.94983,0.26432 c -24.04055,0.19889 -32.14101,0.57021 -32.72208,1.5 -0.88824,1.4213 -1.08411,246.90493 -0.19884,249.21191 0.51456,1.34092 7.58203,1.52377 58.89595,1.52377 32.07117,0 59.02303,-0.27314 59.89301,-0.60699 1.42668,-0.54747 1.58179,-9.71763 1.58179,-93.51607 v -92.90908 l -27.25,0.26607 -27.25,0.26607 -0.5,65 -0.5,65 h -4.5 -4.5 l -0.2568,-69.75 c -0.20409,-55.43349 10e-4,-69.76821 1,-69.83872 0.69124,-0.0488 15.3193,-0.0125 32.5068,0.0806 l 31.25,0.16929 V 86.11059 25.53 h -163 -163 v -5 -5 h 526.94098 c 289.81754,0 527.09961,0.3375 527.29351,0.75 0.1939,0.4125 0.1778,17.31129 -0.036,37.55287 l -0.3882,36.80287 -4.1553,-0.30287 -4.155,-0.30287 -0.5,-32 -0.5,-32 -60.25,-0.25781 -60.24999,-0.2578 V 90.52219 155.53 h -37.5 -37.5 v -37 -37 h 4.5 4.5 l 0.0153,31.25 c 0.008,17.1875 0.37712,31.82 0.81932,32.51667 0.62333,0.98202 6.85609,1.20675 27.73469,1 l 26.93069,-0.26667 0.2578,-60.25781 0.2578,-60.25781 -60.25779,0.25781 -60.25781,0.25781 -0.25729,64.74627 -0.2573,64.74627 -130.2427,0.25373 L 558.4654,156.03 v 60.5 60.5 l 32.25,0.26385 32.25,0.26386 v 4.47229 4.47229 l -32.25,0.26386 -32.25,0.26385 -0.26667,26.93068 c -0.20675,20.8786 0.018,27.11136 1,27.73469 1.45374,0.92274 114.10501,1.11863 117.51667,0.20434 l 2.25,-0.60297 V 309.41337 277.53 h 4.5 4.5 v 31.46482 c 0,31.15346 0.0212,31.47618 2.14568,32.61315 1.52554,0.81644 10.99085,1.04337 32.75,0.78518 l 30.60432,-0.36315 0.26366,32.75 0.26367,32.75 h 60.48633 60.48634 v -27.43261 c 0,-26.99999 -0.0332,-27.44314 -2.10246,-28.09991 -1.15636,-0.36701 -15.44386,-0.52146 -31.75,-0.34322 -16.30615,0.17825 -30.21004,-0.0283 -30.89754,-0.4591 -1.40563,-0.88071 -1.73529,-7.66516 -0.37244,-7.66516 0.48265,0 1.43775,0.675 2.12244,1.5 1.73012,2.08467 7.21921,1.87608 9.62556,-0.36578 1.84969,-1.72325 4.36592,-1.8887 32.93856,-2.16582 17.01473,-0.16503 45.47425,-0.22543 63.24338,-0.13423 l 32.3075,0.16583 -0.3075,4.25 -0.3075,4.25 -31.94983,0.26432 c -23.98987,0.19847 -32.16115,0.57217 -32.798,1.5 -0.4665,0.67962 -0.76723,15.41068 -0.66829,32.73568 0.0989,17.325 0.12053,46.2375 0.048,64.25 l -0.13188,32.75 h -3.89301 c -2.62743,0 -4.09034,-0.51423 -4.5,-1.58179 -0.33385,-0.86998 -0.60699,-15.49172 -0.60699,-32.49276 v -30.91097 l -65.25,-0.25724 -65.25,-0.25724 -0.5,-32.5 -0.5,-32.5 h -92.5 -92.5 l -0.25518,92.75 -0.25518,92.75 h 65.00518 65.00518 v 4.99271 4.9927 l -64.75,0.2573 -64.75,0.25729 -0.5,32.5 -0.5,32.5 -3.5,0.19479 c -1.925,0.10714 -4.0625,-0.0429 -4.75,-0.33333 z M 773.32703,529.03 c -0.31659,-0.825 -1.57402,-1.5 -2.7943,-1.5 -2.7986,0 -6.56733,-3.92856 -6.56733,-6.84584 0,-1.21931 -0.675,-2.47595 -1.5,-2.79253 -1.07079,-0.41091 -1.5,-2.08372 -1.5,-5.84617 0,-3.465 0.51386,-5.69704 1.5,-6.51546 0.825,-0.68469 1.5,-2.11137 1.5,-3.17041 0,-2.23172 4.73902,-6.75161 7.12756,-6.79799 0.89515,-0.0174 2.18775,-0.7066 2.87244,-1.5316 0.82415,-0.99304 3.06235,-1.5 6.62244,-1.5 4.11339,0 5.37756,0.35262 5.37756,1.5 0,0.825 0.8632,1.5 1.91821,1.5 2.9805,0 5.08179,1.07797 5.08179,2.60699 0,0.76615 0.675,1.39301 1.5,1.39301 0.98652,0 1.5,0.98704 1.5,2.88337 0,2.04236 0.58335,3.03592 2,3.40638 1.69563,0.44342 2,1.36401 2,6.04924 0,4.64798 -0.31785,5.62712 -2,6.16101 -1.40104,0.44467 -2,1.51303 -2,3.56739 0,1.9401 -0.50766,2.93261 -1.5,2.93261 -0.825,0 -1.5,0.675 -1.5,1.5 0,1.00345 -1.00349,1.5 -3.03138,1.5 -1.77208,0 -3.27051,0.62314 -3.60699,1.5 -0.42202,1.09977 -2.15636,1.5 -6.5,1.5 -4.34364,0 -6.07798,-0.40023 -6.5,-1.5 z M 352.36824,481.13739 c -0.29907,-0.77935 -0.39955,-2.92234 -0.2233,-4.76219 l 0.32046,-3.3452 32.5,-0.5 32.5,-0.5 0.26688,-25.75 0.26688,-25.75 h 4.99757 4.99757 l -0.26445,30.75 -0.26445,30.75 -37.2767,0.2622 c -31.41467,0.22096 -37.36222,0.0394 -37.82046,-1.15481 z M 649.60377,467.03 c -0.33648,-0.87686 -1.83491,-1.5 -3.60699,-1.5 -1.92442,0 -3.03138,-0.50868 -3.03138,-1.39301 0,-0.76616 -0.675,-1.65203 -1.5,-1.96862 -0.825,-0.31658 -1.5,-1.66658 -1.5,-3 0,-1.33341 -0.675,-2.68341 -1.5,-3 -1.08458,-0.41619 -1.5,-2.11618 -1.5,-6.13837 0,-4.02219 0.41542,-5.72218 1.5,-6.13837 0.825,-0.31659 1.5,-1.67395 1.5,-3.01637 0,-2.28375 4.23514,-7.34526 6.14602,-7.34526 0.46969,0 0.85398,-0.675 0.85398,-1.5 0,-1.19793 1.45999,-1.49446 7.25,-1.47247 7.10078,0.027 7.30146,0.0984 9.75,3.47247 1.375,1.89472 3.0625,3.45733 3.75,3.47247 0.6875,0.0151 1.25,1.09743 1.25,2.40509 0,1.30765 0.675,2.93775 1.5,3.62244 0.9485,0.78718 1.5,2.99319 1.5,6 0,3.00681 -0.5515,5.21282 -1.5,6 -0.825,0.68469 -1.5,2.0666 -1.5,3.07092 0,2.58671 -4.32168,6.92908 -6.89606,6.92908 -1.19169,0 -2.42573,0.675 -2.74231,1.5 -0.38776,1.01048 -1.97432,1.5 -4.86163,1.5 -2.88731,0 -4.47387,-0.48952 -4.86163,-1.5 z m 317.04183,-9.03279 c -2.1008,-2.45697 -4.4633,-4.46721 -5.25,-4.46721 -2.4169,0 -1.9497,-11.48048 0.5698,-14 1.1,-1.1 2.225,-2 2.5,-2 1.1365,0 4.5,-4.11101 4.5,-5.5 0,-1.19843 1.4903,-1.5 7.4125,-1.5 h 7.4124 l 5.5876,5.54308 c 5.5377,5.49364 5.5875,5.5962 5.5875,11.5 0,4.62837 -0.3345,5.95692 -1.5,5.95692 -0.825,0 -1.5,0.675 -1.5,1.5 0,0.825 -0.4652,1.5 -1.0337,1.5 -0.5685,0 -2.3534,1.35 -3.9663,3 -2.6974,2.75939 -3.4767,2.99737 -9.7163,2.96721 -6.7816,-0.0328 -6.7849,-0.0342 -10.6035,-4.5 z M 122.73549,329.20085 c -4.3174,-4.71988 -4.73166,-5.6099 -4.75,-10.20501 -0.019,-4.76193 0.26551,-5.31621 5.26136,-10.25 5.27755,-5.212 5.28623,-5.21584 11.78663,-5.21584 h 6.50519 l 5.71337,5.8654 c 5.26102,5.40102 5.71336,6.227 5.71336,10.43261 0,3.68896 -0.38459,4.68928 -2,5.20199 -1.1,0.34913 -2,1.07739 -2,1.61837 0,0.54098 -1.6875,2.5335 -3.75,4.42784 -3.55261,3.26294 -4.11846,3.44032 -10.75,3.36987 l -7,-0.0744 -4.72991,-5.17086 z M 320.32703,213.03 c -0.32811,-0.85503 -1.81954,-1.5 -3.46862,-1.5 -1.79649,0 -2.89301,-0.52433 -2.89301,-1.38337 0,-0.76085 -0.9,-1.61872 -2,-1.90638 -1.4563,-0.38083 -2,-1.36401 -2,-3.61663 0,-2.08322 -0.48991,-3.09362 -1.5,-3.09362 -1.20833,0 -1.5,-1.55556 -1.5,-8 0,-6.44444 0.29167,-8 1.5,-8 0.95387,0 1.5,-0.95948 1.5,-2.63533 0,-2.9903 4.11564,-7.36467 6.92908,-7.36467 1.00432,0 2.38623,-0.675 3.07092,-1.5 0.79272,-0.95516 3.0025,-1.5 6.0838,-1.5 4.33436,0 5.26003,0.42534 8.87756,4.07921 2.4826,2.50753 4.03864,5.01191 4.03864,6.5 0,1.48515 0.57975,2.42079 1.5,2.42079 1.20056,0 1.5,1.50349 1.5,7.53138 0,5.77208 -0.3504,7.66585 -1.5,8.10699 -0.825,0.31659 -1.5,1.58247 -1.5,2.81308 0,3.32973 -4.06976,7.54855 -7.28184,7.54855 -1.74948,0 -2.71816,0.53456 -2.71816,1.5 0,1.08528 -1.1146,1.5 -4.03138,1.5 -2.66097,0 -4.22706,-0.50991 -4.60699,-1.5 z m 587.13837,-75.5 c -0.40432,-1.27391 -1.51303,-2 -3.05393,-2 -1.509,0 -3.73084,-1.41086 -5.90555,-3.75 -2.95485,-3.17825 -3.49053,-4.47618 -3.51346,-8.51288 -0.0236,-4.14668 0.45809,-5.27848 3.72294,-8.74835 2.10591,-2.23816 4.68955,-3.9862 5.89301,-3.98713 1.17866,-9e-4 2.40203,-0.67664 2.71862,-1.50164 0.41348,-1.07751 2.09908,-1.5 5.98454,-1.5 3.588,0 5.82804,0.50498 6.65383,1.5 0.68469,0.825 2.14273,1.5 3.24009,1.5 1.09736,0 3.74226,1.74706 5.87756,3.88235 3.50447,3.50448 3.88235,4.38352 3.88235,9.03139 0,3.65442 -0.4354,5.31611 -1.5,5.72463 -0.825,0.31659 -1.5,1.20246 -1.5,1.96862 0,0.76615 -0.62686,1.39301 -1.39301,1.39301 -0.76616,0 -1.65203,0.675 -1.96862,1.5 -0.31658,0.825 -1.60648,1.5 -2.86644,1.5 -1.25996,0 -2.8529,0.9 -3.53986,2 -0.99963,1.60067 -2.33202,2 -6.67316,2 -4.54588,0 -5.52692,-0.32383 -6.05891,-2 z m 392.5,-65 c -0.5887,-1.1 -1.9356,-2 -2.9931,-2 -1.0575,0 -3.7416,-1.73032 -5.9648,-3.84516 -3.7929,-3.60815 -4.0421,-4.19373 -4.0421,-9.5 0,-4.35986 0.3435,-5.65484 1.5,-5.65484 0.9472,0 1.5,-0.95441 1.5,-2.58971 0,-3.01241 3.4919,-6.32861 6.7148,-6.37702 1.2182,-0.0183 2.6965,-0.93327 3.2852,-2.03327 0.9,-1.68164 2.0938,-2 7.5,-2 5.4062,0 6.6,0.31836 7.5,2 0.5887,1.1 2.067,2.01497 3.2852,2.03327 3.2229,0.0484 6.7148,3.36461 6.7148,6.37702 0,1.6353 0.5528,2.58971 1.5,2.58971 1.1111,0 1.5,1.16667 1.5,4.5 0,3.33333 -0.3889,4.5 -1.5,4.5 -1.0476,0 -1.5,1.05556 -1.5,3.5 0,2.32497 -0.4677,3.5 -1.393,3.5 -0.7662,0 -1.652,0.675 -1.9686,1.5 -0.3166,0.825 -1.6989,1.5 -3.0718,1.5 -1.4728,0 -2.9351,0.82001 -3.5666,2 -0.9,1.68164 -2.0938,2 -7.5,2 -5.4062,0 -6.6,-0.31836 -7.5,-2 z m -646.63837,-3.5 c -0.32811,-0.85503 -1.81954,-1.5 -3.46862,-1.5 -1.86485,0 -2.89301,-0.51699 -2.89301,-1.45469 0,-0.87076 -1.40492,-1.71825 -3.5,-2.11129 -2.77725,-0.52101 -3.5,-1.12458 -3.5,-2.92287 0,-1.24644 -0.675,-2.82646 -1.5,-3.51115 -0.825,-0.68469 -1.5,-2.77891 -1.5,-4.65383 0,-2.10768 0.57258,-3.62866 1.5,-3.98454 0.825,-0.31659 1.5,-0.97746 1.5,-1.46862 0,-1.21391 3.26991,-4.39887 5.32639,-5.18802 0.92049,-0.35322 1.67361,-1.33134 1.67361,-2.17361 0,-1.02228 0.96176,-1.53138 2.89301,-1.53138 1.64908,0 3.14051,-0.64497 3.46862,-1.5 0.45285,-1.18012 2.50158,-1.5 9.60699,-1.5 5.67048,0 9.03138,0.39276 9.03138,1.05543 0,0.58049 2.925,3.88139 6.5,7.33534 8.50016,8.21233 8.55546,9.81834 0.61087,17.73834 -3.51236,3.50148 -6.75372,5.87089 -8.03139,5.87089 -1.17824,0 -2.40127,0.675 -2.71785,1.5 -0.43497,1.1335 -2.26748,1.5 -7.5,1.5 -5.23253,0 -7.06504,-0.3665 -7.5,-1.5 z"
     id="path3875"
     inkscape:connector-curvature="0" />
</svg>
