<?xml version="1.0" encoding="UTF-8" standalone="no"?>
<!-- Created with Inkscape (http://www.inkscape.org/) -->

<svg
   xmlns:dc="http://purl.org/dc/elements/1.1/"
   xmlns:cc="http://creativecommons.org/ns#"
   xmlns:rdf="http://www.w3.org/1999/02/22-rdf-syntax-ns#"
   xmlns:svg="http://www.w3.org/2000/svg"
   xmlns="http://www.w3.org/2000/svg"
   xmlns:sodipodi="http://sodipodi.sourceforge.net/DTD/sodipodi-0.dtd"
   xmlns:inkscape="http://www.inkscape.org/namespaces/inkscape"
   version="1.1"
   id="svg3955"
   width="337.60001"
   height="330.39999"
   viewBox="0 0 337.60001 330.39999"
   sodipodi:docname="map_1.svg"
   inkscape:version="0.92.2 5c3e80d, 2017-08-06">
  <metadata
     id="metadata3961">
    <rdf:RDF>
      <cc:Work
         rdf:about="">
        <dc:format>image/svg+xml</dc:format>
        <dc:type
           rdf:resource="http://purl.org/dc/dcmitype/StillImage" />
        <dc:title></dc:title>
      </cc:Work>
    </rdf:RDF>
  </metadata>
  <defs
     id="defs3959" />
  <sodipodi:namedview
     pagecolor="#ffffff"
     bordercolor="#666666"
     borderopacity="1"
     objecttolerance="10"
     gridtolerance="10"
     guidetolerance="10"
     inkscape:pageopacity="0"
     inkscape:pageshadow="2"
     inkscape:window-width="1440"
     inkscape:window-height="813"
     id="namedview3957"
     showgrid="false"
     inkscape:zoom="0.71428573"
     inkscape:cx="168.8"
     inkscape:cy="165.2"
     inkscape:window-x="0"
     inkscape:window-y="1"
     inkscape:window-maximized="1"
     inkscape:current-layer="svg3955" />
  <path
     style="fill:#000000;stroke-width:0.80000001"
     d="M 9.6000004,176.59999 V 22.599999 H 11.6 h 2 v 8 8 h 16 16 v 2 2 h -16 -16 v 22.000002 22 h 14 14 v -6 -6 h -8 -8 v -10 -10 h 2 2 v 8 8 h 8 8 v 10 10 h -16 -16 V 104.6 v 14 h 30 30.000001 v -8 -8 H 83.6 h 10 v 2 2 h -8 -8 v 24 24 h -1.999999 -2 v -8 -8 h -14 H 45.6 v 22 21.99999 h 8 8.000001 v 2 2 H 43.6 25.6 v -2 -2 h 8 8 V 160.6 v -22 h -8 -8 v -2 -2 h 24 24.000001 v -6 -6 H 43.6 13.6 v 14 14 H 21.599999 29.6 v 10 9.99999 h -2 -2 V 162.6 v -8 H 19.599999 13.6 v 21.99999 22 h 30 30.000001 v -8 -8 h 2 H 77.6 v 10 10 h -7.999999 -8 v 22 22 h 6 6 v -16 -16 h 2 H 77.6 v 18 18 h -7.999999 -8 v 8 8 h -2 -2 v -32 -32 H 43.6 29.6 v 16 16 h -2 -2 v -16 -16 H 19.599999 13.6 v 22 22 H 21.599999 29.6 v 2 2 H 21.599999 13.6 v 14 14 h 14 14 v -6 -6 h -8 -8 v -2 -2 h 8 8 v -24 -24 h 2 2 v 32 32 h 14.000001 14 v -8 -8 h 2 H 77.6 v 8 8 h 6 6 v -24 -24 h 10 10 v 2 2 h -8 -8 v 24 24 h -16 -15.999999 v 8 8 h -2 -2 v -8 -8 H 35.6 13.6 v 22 22 h 14 14 v -14 -14 h -6 -6 v 8 8 h -2 -2 v -10 -10 h 10 10 v 16 16 H 75.600001 105.6 v -6 -6 h -24 -23.999999 v -2 -2 H 83.6 h 26 v 8 8 h 14 14 v -22 -22 h -8 -8 v -8 -8 h -6 -6 v 14 14 h 8 8 v 10 10 h -2 -2 v -8 -8 h -24 -23.999999 v -2 -2 H 89.6 h 16 v -24 -24 h 2 2 v 8 8 h 8 8 v 8 8 h 14 14 v -14 -14 h -6 -6 v 8 8 h -2 -2 v -8 -8 h -8 -8 v -26 -26 h 8 8 v -8 -8 h 2 2 v 10 10 h -8 -8 v 22 22 h 14 14 v -8 -8 h 2 2 v 26 26 h -8 -8 v 22 22 h 14 14 v -6 -6 h -8 -8 v -2 -2 h 10 10 v 10 10 H 91.6 9.6000004 Z M 172,320.59999 v -8.4 l -8.6,0.16872 -8.6,0.16871 8.2,0.25927 8.2,0.25928 v 7.572 7.57202 H 155.6 140 v -23.6 -23.6 h 8 8 l -0.16872,-24.6 c -0.0928,-13.53 -0.28538,-20.91 -0.42798,-16.4 l -0.25927,8.2 H 139.57202 124 v -23.6 -23.6 h 8 8 l -0.16872,-8.6 -0.16871,-8.6 -0.25927,8.2 -0.25927,8.2 H 131.17202 123.2 v 24.4 24.4 h 8 8 l 0.16872,8.2 0.16872,8.2 0.25927,-8.2 0.25927,-8.2 h 7.57201 7.57201 v 15.6 15.6 H 139.6 124 v -8 -8 h -7.97201 -7.97201 l -0.25927,-8.2 c -0.1426,-4.51 -0.33519,2.68255 -0.42799,15.98343 L 107.2,296.16686 91,296.40094 c -13.18655,0.19055 -11.70363,0.26804 7.97202,0.41657 l 24.17201,0.18248 0.25927,8.2 0.25927,8.2 0.16871,-8.6 0.16872,-8.6 h -8 -8 v -15.6 -15.6 h 7.6 7.6 v 8 8 h 8 8 v 23.6 23.6 H 123.6 108 v -8 -8 l -24.6,0.18782 -24.599999,0.18783 24.199999,0.2239 24.2,0.22391 v 7.58827 7.58827 H 75.600001 44 v -16 -16 h -8.4 -8.4 l 0.168717,8.6 0.168719,8.6 0.259268,-8.2 0.259268,-8.2 H 35.627986 43.2 v 15.6 15.6 H 27.6 12 v -23.6 -23.6 h 23.6 23.600001 l 0.168717,8.2 0.168719,8.2 0.259268,-8.2 0.259268,-8.2 H 76.027987 92 v -23.97201 -23.97201 l 8.2,-0.25927 8.2,-0.25927 -8.6,-0.16872 -8.6,-0.16872 v 24 24 h -7.6 -7.599999 l -0.168718,-8.2 -0.168718,-8.2 -0.259269,8.2 -0.259268,8.2 H 59.572014 44 l -0.187822,-32.2 c -0.178749,-30.64446 -0.198639,-31.03092 -0.411731,-8 l -0.223908,24.2 -8.18827,0.16872 -8.188269,0.16871 8.2,0.25928 8.2,0.25927 v 7.57201 7.57201 H 27.6 12 v -15.6 -15.6 L 20.199999,248.83127 28.4,248.66256 20.199999,248.40329 12,248.14402 V 224.57201 200.99999 H 19.599999 27.2 l 0.182481,16.2 0.182481,16.2 0.234083,-16.2 0.234083,-16.2 h 15.583436 15.583437 l 0.168717,32.2 c 0.0928,17.71 0.285389,28.51 0.427987,24 l 0.259268,-8.2 h 7.972014 7.972014 l -0.182482,-16.6 -0.18248,-16.6 -0.234084,16.2 -0.234083,16.2 h -7.583435 -7.583436 v -23.6 -23.6 h 8 8 l -0.168718,-8.6 -0.168718,-8.6 -0.259269,8.2 -0.259268,8.2 H 43.572014 12 v -23.6 V 153 h 7.572013 7.572014 l 0.259268,8.2 0.259269,8.19999 L 27.831282,160.8 28,152.2 H 19.999999 12 V 136.6 121 h 31.6 31.600001 v 7.6 7.6 L 51,136.36872 c -13.31,0.0928 -20.51,0.28538 -16,0.42798 l 8.2,0.25927 V 160.6 184.14402 l -8.2,0.25927 c -4.51,0.1426 -0.64,0.25927 8.6,0.25927 9.24,0 13.110001,-0.11667 8.6,-0.25927 L 44,184.14402 V 160.57201 137 h 15.572014 15.572014 l 0.259268,8.2 c 0.142599,4.51 0.335192,-2.67741 0.427987,-15.97202 L 76.000001,105.05597 84.2,104.7967 92.4,104.53743 83.8,104.36872 75.200001,104.2 v 8 8 H 43.6 12 V 104.6 89.000001 h 16 16 v -8.4 -8.4 h -7.972014 -7.972014 l -0.259268,-8.2 -0.259268,-8.2 -0.168719,8.6 -0.168717,8.6 h 8 8 v 7.6 7.6 H 27.6 12 v -23.6 -23.600002 L 28.2,40.817517 44.4,40.635036 28.227804,40.401042 12.055609,40.167047 11.796522,31.983523 C 11.654025,27.482585 11.461512,92.470001 11.368718,176.39999 L 11.2,328.99999 H 91.6 172 Z m 13.60001,-6 v -16 H 169.6 h -16 v -2 -2 h 8 8 v -38 -38 h -14 -14 v 8 8 h -2 -2 v -10 -10 h 8 8 v -6.4 c 0,-6.29333 0.0334,-6.4 2,-6.4 1.96667,0 2,0.10667 2,6.4 v 6.4 h 16 16.00001 v 2 2 h -8 H 173.6 v 14 14 h 24.00001 24 v 2 2 h -8 -8 v 14 14 h 16 16 v 2 2 h -8 -8 v 8 8 h -2 -2 v -8 -8 h -16 -16 v -2 -2 h 8 8 v -14 -14 h -14 H 173.6 v 6 6 h 8.00001 8 v 2 2 h -8 H 173.6 v 14 14 h 16.00001 16 v 8 8 h 30 30 v -8 -8 h 2 2 v 8 8 h 8 8 v 2 2 h -42 -42 v -8 -8 h -6 -6 v 14 14 h 54 54 v -24 -24 h 2 2 v 24 24 h 14 14 v -6 -6 h -8 -8 v -2 -2 h 8 8 v -30 -30 h -14 -14 v 6 6 h 8 8 v 18 18 h -2 -2 v -16 -16 h -8 -8 v -10 -10 h 16 16 v -63.6 V 119.4 h 2 2 v 105.59999 105.6 h -74 -74 z m 146.20486,-89.8 c -0.13636,-72.81147 -0.2583,-84.98131 -0.40479,-40.4 l -0.20965,63.8 h -15.99521 -15.99521 v 8.4 8.4 h 7.98343 7.98344 l 0.23408,16.2 0.23409,16.2 0.18248,-16.6 0.18248,-16.6 h -8 -8 v -7.6 -7.6 h 15.6 15.6 v 31.6 31.6 l -8.2,0.16872 -8.2,0.16871 8.2,0.25927 8.2,0.25928 v 7.572 7.57202 h -15.6 -15.6 l -0.18783,-24.2 -0.18782,-24.2 -0.2239,24.2 -0.22392,24.2 h -55.58826 -55.58827 v -15.6 -15.6 h 7.6 7.6 v 8 8 l 40.6,-0.16872 c 22.33,-0.0928 36.91,-0.28538 32.4,-0.42798 l -8.2,-0.25928 -0.16872,-8.172 -0.16871,-8.17202 -0.25928,8.2 -0.25927,8.2 h -31.57201 -31.57201 v -8 -8 h -16 H 172 v -15.6 -15.6 l 8.20001,-0.16872 8.2,-0.16871 -8.2,-0.25927 L 172,264.14402 v -7.57201 -7.57202 h 15.60001 15.6 v 15.57202 15.57201 l -8.2,0.25927 c -4.51,0.1426 -0.91,0.33519 8,0.42798 l 16.2,0.16872 0.16872,8.2 0.16871,8.2 0.25897,-8.17232 0.25896,-8.17232 8.17232,-0.25896 c 4.49477,-0.14243 0.88232,-0.33489 -8.02768,-0.42768 l -16.2,-0.16872 v -15.57201 -15.57201 l 8.2,-0.25927 c 4.51,-0.1426 -2.69,-0.3352 -16,-0.42799 L 172,248.19999 v -15.57201 -15.57201 l 8.20001,-0.25927 c 4.51,-0.1426 0.91,-0.33519 -8.00001,-0.42799 l -16.2,-0.16872 -0.16284,-6.6 -0.16283,-6.6 -0.26952,6.6 -0.26951,6.6 H 147.16765 139.2 l 0.16872,8.6 0.16872,8.6 0.25927,-8.2 0.25927,-8.2 H 155.62799 171.2 v 39.57202 39.57201 l -8.2,0.25927 c -4.51,0.1426 -0.91,0.33519 8,0.42798 l 16.20001,0.16872 v 16 16 h 72.4 72.4 z m -98.20486,71.8 v -2 h 8 8 v -14 -14 h -16 -16 v -2 -2 h 8 8 v -14 -14 h -24 -24 v -2 -2 h 8 8 v -16 -16 h 2 2 v 16 16 h 14 14 v -8 -8 h 10 10 v 16 16 h 14 14 v -8 -8 h 10 10 v 2 2 h -8 -8 v 8 8 h -18 -18 v -16 -16 h -6 -6 v 22 22 h 24 24 v 2 2 h -16 -16 v 6 6 h 16 16 v 10 10 h -2 -2 v -8 -8 h -14 -14 v 8 8 h -10 -10 z m 18.4,-7.6 v -8 h 15.57201 15.57201 l 0.25927,8.2 0.25928,8.2 0.16871,-8.6 0.16872,-8.6 h -16 -16 v -7.58343 -7.58344 l 16.2,-0.23408 c 13.16489,-0.19023 11.66608,-0.26827 -8,-0.41657 l -24.2,-0.18248 v -23.6 -23.6 h 7.6 7.6 v 16 16 h 16.4 16.4 v -7.97201 -7.97201 l 8.2,-0.25927 8.2,-0.25927 -8.6,-0.16872 -8.6,-0.16872 v 8 8 h -15.6 -15.6 v -16 -16 h -8.4 -8.4 v 8 8 h -15.6 -15.6 l -0.18248,-16.2 -0.18248,-16.2 -0.234,16.1722 -0.234,16.1722 -8.18352,0.25908 c -4.50094,0.1425 2.70648,0.33501 16.01648,0.4278 l 24.2,0.16872 v 15.57202 15.57201 l -8.2,0.25927 c -4.51,0.1426 -0.91,0.33519 8,0.42798 l 16.2,0.16872 v 15.57202 15.57201 l -8.2,0.25927 -8.2,0.25927 8.6,0.16871 8.6,0.16872 z m 13.6,-64.4 v -10 h 24 24 v -14 -14 h -16 -16 v -8 -8 h -8 -8 V 168.6 v -2 h 8 8 v -8 -8 h 2 2 v 16 15.99999 h 14 14 V 144.6 v -38 h -8 -8 v -2 -2 h 16 16 v -13.999999 -14 h -8 -8 v -2 -2 h 8 8 v -22 -22.000002 h -8 -8 v -2 -2 h 8 8 V 16.6 v -6 h -14 -14 v 13.999999 14 h 8 8 v 2 2 h -10 -10 v -16 V 10.6 h -8 -8 v -1.9999999 -2 h 26 26 V 56.600001 106.6 h -8 -8 v 63.99999 64 h -2 -2 v -8 -8 h -22 -22 v 8 8 h -2 -2 z m 26,-7.6 h 23.54402 l 0.25928,8.2 c 0.1426,4.51 0.33519,-20.69 0.42798,-55.99999 l 0.16872,-64.2 h 8 8 V 56.600001 8.2000001 l -24.6,0.168718 c -13.53,0.0928 -20.91,0.285388 -16.4,0.427986 l 8.2,0.259269 V 25.027986 40.999999 l 8.6,-0.168718 8.6,-0.168718 -8.2,-0.259269 -8.2,-0.259268 V 24.572013 9.0000001 h 15.6 15.6 V 16.6 24.199999 l -8.2,0.168718 -8.2,0.168718 8.2,0.259269 8.2,0.259268 v 23.572009 23.57202 l -8.2,0.16871 -8.2,0.16872 8.2,0.25927 8.2,0.25927 V 88.627981 104.2 l -16.2,0.16872 c -8.91,0.0928 -12.51,0.28538 -8,0.42798 l 8.2,0.25927 v 39.57201 39.57201 h -15.6 -15.6 L 283.83129,168 c -0.0928,-8.91 -0.28539,-12.51 -0.42799,-8 l -0.25927,8.2 -8.17201,0.16872 -8.17201,0.16871 8.2,0.25927 8.2,0.25927 v 7.97201 7.97201 h 16 16 v 15.6 15.6 h -24 -24 l 0.16872,8.6 0.16871,8.6 0.25927,-8.2 0.25927,-8.2 z M 89.6,194.59999 v -24 h -15.999999 -16 V 160.6 v -10 h 2 2 v 8 8 h 14 H 89.6 v -8 -8 h 2 2 v 8 8 h 6 6 v -14 -14 h -8 -8 v -2 -2 h 16 16 v -14 -14 h -6 -6 v 8 8 h -10 -10 v -2 -2 h 8 8 v -8 -8 h 8 8 v -13.999999 -14 h -8 -8 v -10 -10 h 2 2 v 8 8 h 8 8 V 104.6 v 34 h -8 -8 v 16 15.99999 h -8 -8 v 24 24 h -2 -2 z M 100.01173,169 H 108 v -16 -16 h 8 8 V 104.6 72.200001 h -7.97201 -7.97201 l -0.25927,-8.2 -0.25927,-8.2 -0.16872,8.6 -0.16872,8.6 h 8 8 v 15.6 V 104.2 h -8 -8 v 7.97201 7.97201 l -8.2,0.25927 -8.2,0.25927 8.6,0.16872 L 108,121 v -8 -8 h 7.6 7.6 v 15.6 15.6 l -16.2,0.16872 c -8.91,0.0928 -12.51,0.28538 -8,0.42798 l 8.2,0.25927 V 152.62798 168.2 H 99.6 92 l -0.16872,-8.2 -0.16871,-8.2 -0.25927,8.2 -0.25927,8.2 H 75.600001 60.055973 l -0.259268,-8.2 -0.259268,-8.2 -0.168719,8.6 -0.168717,8.6 h 16 H 91.2 l 0.18783,24.19999 0.18782,24.2 0.2239,-24.2 L 92.02347,169 Z M 105.6,200.59999 v -18 h 8 8 V 166.6 v -16 h 2 2 v 18 17.99999 h -8 -8 v 16 16 h -2 -2 z m 10.41657,-15.6 H 124 L 123.81752,168.4 l -0.18248,-16.6 -0.23408,16.2 -0.23408,16.19999 H 115.18344 107.2 l 0.18248,16.6 0.18248,16.6 0.23409,-16.2 0.23408,-16.2 z m 101.58344,17.6 v -16 h -16 -16 v -16 V 154.6 H 171.6 h -14 v 14.79999 14.8 h -2 c -1.97647,0 -2,-0.08 -2,-6.8 v -6.8 h -8.4 -8.4 V 168.6 v -2 h 8.4 8.4 v -8 -8 h 16 16.00001 v -14 -14 H 169.6 h -16 v -10 -10 h 2 2 v 8 8 h 6 6 v -8 -8 h 2 2 v 8 8 h 16.00001 16 v 8 8 h 8 8 v 10 10 h -2 -2 v -8 -8 h -8 -8 v -8 -8 h -6 -6 v 30 29.99999 h 16 16 v 8 8 h 8 8 v 2 2 h -8 -8 v 8 8 h -2 -2 z m 10.62798,-1.76872 8.17202,-0.16871 -8.2,-0.25927 -8.2,-0.25927 v -7.97201 -7.97202 h -16 -16 V 152.6 121 h 7.6 7.6 v 8 8 h 7.97201 7.97201 l 0.25927,8.2 0.25927,8.2 0.16872,-8.6 0.16872,-8.6 h -8 -8 v -8 -8 h -16 H 172 l -0.16872,-8.2 -0.16871,-8.2 -0.25927,8.2 -0.25927,8.2 H 163.6 156.05598 l -0.25927,-8.2 -0.25927,-8.2 -0.16872,8.6 L 155.2,121 h 16 16.00001 v 15.6 15.6 H 171.2 h -16 v 8 8 l -8.6,0.1699 -8.6,0.1699 8.56924,0.25685 8.56925,0.25685 0.26625,6.97325 c 0.14644,3.83528 0.34028,0.22324 0.43075,-8.02675 L 156,153 h 15.6 15.60001 v 16 15.99999 h 16 16 l 0.16872,16.2 c 0.0928,8.91 0.28538,12.51 0.42798,8 l 0.25927,-8.2 z M 169.6,184.59999 V 166.6 h 2 2 v 15.99999 16 h 8.00001 8 v 2 2 h -10 H 169.6 Z m 10.61648,15.80348 -8.18352,-0.25908 -0.234,-16.1722 -0.234,-16.17219 -0.18248,16.59999 -0.18248,16.6 8.60001,-0.16872 8.6,-0.16871 z m 69.38353,-5.80348 v -8 h -8 -8 v -2 -2 h 8 8 V 168.6 v -14 h -6 -6 v 8 7.99999 h -18 -18 V 160.6 v -10 h 2 2 v 8 8 h 14 14 v -8 -8 h 10 10 v 23.99999 24 h 6 6 v -8 -8 h 2 2 v 8 8 h 16 16 v 2 2 h -26 -26 z m 34.6,5.80096 -16.2,-0.23408 -0.16872,-8.18344 -0.16871,-8.18344 -0.25928,8.2 -0.25927,8.2 h -7.57201 -7.57201 v -24 V 152.2 h -8.4 -8.4 v 8 8 h -15.57202 -15.57201 l -0.25927,-8.2 -0.25927,-8.2 -0.16871,8.6 -0.16872,8.6 h 16.4 16.4 v -8 -8 h 7.6 7.6 v 15.6 15.59999 l -8.2,0.16872 -8.2,0.16872 8.2,0.25927 8.2,0.25927 v 7.97201 7.97201 l 24.6,-0.18248 c 19.52655,-0.14484 21.25895,-0.23076 8.4,-0.41656 z m 13.4,-45.80095 v -16 h -14 -14 v 8 8 h -2 -2 v -8 -8 h -16 -16 v -18 -18 h 8 8 v -13.999999 -14 h -16 -16 v -2 -2 h 26 26 v 8 8 h 24 24 v 2 2 h -24 -24 v 8 V 106.6 h -2 -2 v -15.999999 -16 h -6 -6 v 24 V 122.6 h -2 -2 v -8 -8 h -6 -6 v 14 14 h 14 14 v -8 -8 h 2 2 v 8 8 h 14 14 v -6 -6 h -8 -8 v -10 -10 h 2 2 v 8 8 h 8 8 v 26 25.99999 h -2 -2 z m 2.4,-10 v -24.4 h -7.97202 -7.97201 l -0.25927,-8.2 -0.25927,-8.2 -0.16871,8.6 -0.16872,8.6 h 8 8 v 7.6 7.6 h -15.6 -15.6 l -0.16872,-8.2 -0.16871,-8.2 -0.25928,8.2 -0.25927,8.2 H 251.57202 236.00001 V 120.6 105 h 7.57201 7.57201 l 0.25927,8.2 c 0.1426,4.51 0.3352,-2.69 0.42799,-15.999999 l 0.16872,-24.2 h 7.6 7.6 l 0.16872,16.2 c 0.0928,8.91 0.28538,12.509999 0.42798,8 l 0.25927,-8.2 24.17201,-0.18783 24.17202,-0.18782 -24.2,-0.22391 -24.2,-0.22391 v -7.98826 -7.98827 l -24.6,0.18248 c -19.52656,0.14484 -21.25896,0.23076 -8.4,0.41656 l 16.2,0.23409 V 88.616561 104.2 h -8 -8 v 16.4 16.4 h 16 16 l 0.16872,8.2 0.16871,8.2 0.25927,-8.2 0.25927,-8.2 h 15.57201 15.57202 v 16 c 0,8.8 0.18,16 0.4,16 0.22,0 0.4,-10.98 0.4,-24.4 z M 137.6,112.6 V 70.600001 h 10 10 v 2 2 h -8 -8 v 6 6 h 14 14 v -8 -8 h 2 2 v 8 8 h 8.00001 8 v 8 V 102.6 h 14 14 v -5.999999 -6 h -8 -8 v -10 -10 h 2 2 v 8 8 h 16 16 v 2 2 h -8 -8 V 106.6 v 16 h -2 -2 v -8 -8 h -16 -16 v -7.999999 -8 H 163.6 141.6 V 112.6 v 22 h 16 16 v 2 2 h -16 -16 v 8 8 h -2 -2 z M 156.22799,136.81752 172.4,136.63504 156.2,136.40095 140,136.16687 V 112.58343 89.000001 h 23.6 23.60001 v 8 V 105 h 15.97201 15.97201 l 0.25927,8.2 c 0.1426,4.51 0.33519,0.92259 0.42799,-7.97202 l 0.16872,-16.172009 8.2,-0.25927 c 4.51,-0.1426 0.92259,-0.33519 -7.97202,-0.42798 l -16.17201,-0.16872 -0.25927,-8.2 -0.25927,-8.2 -0.16871,8.6 -0.16872,8.6 h 8 8 v 7.6 V 104.2 h -15.6 -15.6 v -7.999999 -8 h -8 H 172 l -0.16872,-8.2 -0.16871,-8.2 -0.25927,8.2 -0.25927,8.2 H 155.57202 140 v -7.57202 -7.57201 l 8.2,-0.25927 8.2,-0.25927 -8.6,-0.16872 -8.6,-0.16871 0.16872,40.599999 c 0.0928,22.33 0.28539,36.91 0.42799,32.4 l 0.25927,-8.2 z M 25.6,104.6 v -2 h 16 16.000001 v -21.999999 -22 H 49.6 h -8 v -2 -2 h 8 8.000001 v -14.000002 -14 H 41.6 25.6 v -2 -2 h 26 26 v 2 2 h -7.999999 -8 v 30.000002 30 h 14 H 89.6 v -22 -22.000002 h -6 -6 v 16.000002 16 h -1.999999 -2 v -18 -18.000002 H 99.6 h 26 v 10.000002 10 h -2 -2 v -8 -8.000002 h -14 -14 v 22.000002 22 h 8 8 v 2 2 h -24 -23.999999 v 8 V 106.6 H 43.6 25.6 Z m 34.400001,-7.599999 v -8 L 84.2,88.831281 c 13.31,-0.0928 20.51,-0.28539 16,-0.42799 L 92,88.144021 V 64.572011 40.999999 h 15.57202 15.57201 l 0.25927,8.200002 0.25927,8.2 0.16871,-8.6 L 124,40.199999 H 99.6 75.200001 l 0.182482,16.600002 0.18248,16.6 0.234084,-16.2 0.234083,-16.200002 H 83.61657 91.2 v 23.600002 23.6 h -15.599999 -15.6 V 56.627981 25.055972 l 8.2,-0.259268 c 4.51,-0.142598 -2.96,-0.253075 -16.600001,-0.245505 -13.653412,0.0076 -17.518761,0.118974 -8.6,0.247846 l 16.200001,0.234083 V 40.616563 56.200001 L 51,56.368711 l -8.2,0.16872 8.2,0.25927 8.200001,0.25927 v 23.55545 23.555449 L 43,104.40095 26.8,104.63504 43.4,104.81752 60.000001,105 Z m 125.600009,-30.4 v -8 H 169.6 h -16 v -2 -2 h 48.00001 48 v -16.000002 -16 h 2 2 v 8 8 h 14 14 v -8 -8 h 2 2 v 16 16.000002 h 16 16 v 2 2 h -16 -16 v 6 6 h 8 8 v 2 2 h -10 -10 v -8 -8 h -8 -8 v -2 -2 h 8 8 v -6 -6.000002 h -14 -14 v 8.000002 8 h -32 -32 v 8 8 h -2 -2 z m 34.42798,-9.6 h 31.97202 v -8 -8.000002 h 15.6 15.6 v 7.600002 7.6 l -8.2,0.16871 -8.2,0.16872 8.2,0.25927 8.2,0.25927 v 7.97201 7.97202 l 8.6,-0.16872 8.6,-0.16872 -8.2,-0.25927 -8.2,-0.25927 v -7.57201 -7.57201 l 16.2,-0.18248 16.2,-0.18249 -16.2,-0.23408 -16.2,-0.23408 -0.16872,-16.183436 c -0.0928,-8.900889 -0.28539,-12.493436 -0.42799,-7.983436 l -0.25927,8.2 h -15.54402 -15.54403 l -0.25927,-8.2 c -0.1426,-4.51 -0.33519,-0.91 -0.42798,8 l -0.16872,16.200002 -48.2,0.18248 c -26.51,0.10036 -40.91001,0.28782 -32.00001,0.41656 l 16.20001,0.23409 0.16872,8.18343 0.16871,8.18344 0.25927,-8.2 0.25927,-8.2 z M 137.6,42.599999 v -16 h -16 -16 v -2 -2 h 18 18 v 8 8 h 30 30.00001 v -14 V 10.6 h -22 H 157.6 v 6 5.999999 h 16 16.00001 v 2 2 H 171.6 153.6 V 18.6 v -8 h -30 -30 v 8 7.999999 h -2 -2 V 18.6 10.6 H 49.6 9.6000004 v -1.9999999 -2 H 139.6 269.60001 V 16.6 26.599999 h -2 -2 V 18.6 v -8 h -14 -14 v 15.999999 16 h -10 -10 v -10 -10 h 2 2 v 8 8 h 6 6 v -14 V 10.6 h -14 -14 v 15.999999 16 H 173.6 h -32 v 8.000002 8 h -2 -2 z m 34.42799,-1.6 h 31.97202 v -16 -15.9999989 h 15.6 15.6 v 15.5999989 15.6 h -7.57202 -7.57201 l -0.25927,-8.2 -0.25927,-8.2 -0.16871,8.6 -0.16872,8.6 h 8.4 8.4 v -16 -15.9999989 h 15.57201 15.57201 L 267.4033,17.2 267.66258,25.399999 267.83129,16.8 268.00001,8.2000001 139.4,8.3924321 C 68.670001,8.4982701 28.89,8.6816001 51,8.7998321 l 40.2,0.214966 0.16872,8.1926009 0.16871,8.1926 L 91.79671,17.2 92.05598,9.0000001 H 123.62799 155.2 V 17 24.999999 L 171.8,24.817518 188.40001,24.635037 172.2,24.400954 156,24.166871 V 16.583436 9.0000001 h 23.60001 23.6 v 15.5999989 15.6 H 171.6 140 v -8 -8 l -16.6,0.182482 -16.6,0.182481 16.2,0.234083 16.2,0.234083 0.16872,16.183435 c 0.0928,8.900888 0.28539,12.493438 0.42799,7.983438 l 0.25927,-8.200002 z"
     id="path3965"
     inkscape:connector-curvature="0" />
</svg>
