<?xml version="1.0" encoding="UTF-8" standalone="no"?>
<!-- Created with Inkscape (http://www.inkscape.org/) -->

<svg
   xmlns:dc="http://purl.org/dc/elements/1.1/"
   xmlns:cc="http://creativecommons.org/ns#"
   xmlns:rdf="http://www.w3.org/1999/02/22-rdf-syntax-ns#"
   xmlns:svg="http://www.w3.org/2000/svg"
   xmlns="http://www.w3.org/2000/svg"
   xmlns:sodipodi="http://sodipodi.sourceforge.net/DTD/sodipodi-0.dtd"
   xmlns:inkscape="http://www.inkscape.org/namespaces/inkscape"
   version="1.1"
   id="svg3753"
   width="325.60001"
   height="325.60001"
   viewBox="0 0 325.60001 325.60001"
   sodipodi:docname="2d maze.svg"
   inkscape:version="0.92.2 5c3e80d, 2017-08-06">
  <metadata
     id="metadata3759">
    <rdf:RDF>
      <cc:Work
         rdf:about="">
        <dc:format>image/svg+xml</dc:format>
        <dc:type
           rdf:resource="http://purl.org/dc/dcmitype/StillImage" />
        <dc:title></dc:title>
      </cc:Work>
    </rdf:RDF>
  </metadata>
  <defs
     id="defs3757" />
  <sodipodi:namedview
     pagecolor="#ffffff"
     bordercolor="#666666"
     borderopacity="1"
     objecttolerance="10"
     gridtolerance="10"
     guidetolerance="10"
     inkscape:pageopacity="0"
     inkscape:pageshadow="2"
     inkscape:window-width="1440"
     inkscape:window-height="813"
     id="namedview3755"
     showgrid="false"
     inkscape:zoom="1.6830467"
     inkscape:cx="162.8"
     inkscape:cy="162.8"
     inkscape:window-x="0"
     inkscape:window-y="1"
     inkscape:window-maximized="1"
     inkscape:current-layer="svg3753" />
  <path
     style="fill:#000000;stroke-width:0.80000001"
     d="m 12.889052,169.22337 c 0,-135.644456 0.13751,-153.200011 1.2,-153.200011 0.986666,0 1.2,1.422222 1.2,8 v 8 h 16.000001 c 13.688889,0 16,0.173334 16,1.2 0,1.026667 -2.311111,1.2 -16,1.2 H 15.289052 V 57.22336 80.023358 h 14.800001 14.8 v -6.8 -6.799998 h -8 -8 v -9.2 c 0,-7.644445 0.202898,-9.2 1.2,-9.2 0.986666,0 1.2,1.422222 1.2,8 v 8 h 8 8 v 9.199998 9.2 h -16 -16.000001 v 14.8 14.800002 h 30.800001 30.800001 v -8 -8.000002 h 9.2 c 7.644449,0 9.200001,0.2029 9.200001,1.2 0,0.98667 -1.422224,1.2 -8.000001,1.2 h -8 v 24.000002 c 0,20.8 -0.16,24 -1.2,24 -0.986666,0 -1.2,-1.42222 -1.2,-8 v -8 h -14.8 -14.800001 v 22.8 22.80001 h 8 c 6.577778,0 8.000001,0.21333 8.000001,1.2 0,1.02945 -2.444445,1.2 -17.200001,1.2 -14.755556,0 -17.2,-0.17055 -17.2,-1.2 0,-0.98667 1.422222,-1.2 8,-1.2 h 8 v -22.80001 -22.8 h -8 c -6.577778,0 -8,-0.21333 -8,-1.2 0,-1.04 3.2,-1.2 24,-1.2 h 24.000001 v -2.42054 -2.42054 l -2.360272,1.22054 c -3.007843,1.55542 -6.671613,1.55542 -9.679456,0 -3.051268,-1.57787 -2.993225,-3.21106 0.172299,-4.84801 3.204101,-1.65691 9.307566,-1.12646 10.818779,0.94025 0.919646,1.25769 1.04865,0.97243 1.04865,-2.31879 v -3.75291 H 46.089053 15.289052 v 14.8 14.8 h 8 8.000001 v 9.2 c 0,7.64445 -0.202899,9.20001 -1.2,9.20001 -0.986667,0 -1.2,-1.42223 -1.2,-8.00001 v -8 h -6.800001 -6.8 v 22.80001 22.8 h 30.800001 30.800001 v -8 c 0,-6.57778 0.213334,-8 1.2,-8 0.997102,0 1.2,1.55555 1.2,9.2 v 9.2 h -8 -8 v 22.8 22.8 h 6.8 6.8 v -16 c 0,-13.68889 0.173334,-16 1.2,-16 1.029458,0 1.2,2.44444 1.2,17.2 v 17.2 h -8 -8 v 8 c 0,6.57777 -0.213334,8 -1.2,8 -1.046667,0 -1.2,-4.08889 -1.2,-32 v -32 h -14.800001 -14.8 v 16 c 0,13.68888 -0.173334,16 -1.2,16 -1.026667,0 -1.2,-2.31112 -1.2,-16 v -16 h -6.800001 -6.8 v 22.8 22.8 h 8 c 6.577778,0 8.000001,0.21333 8.000001,1.2 0,0.98666 -1.422223,1.2 -8.000001,1.2 h -8 v 14.8 14.8 h 14.800001 14.8 v -6.8 -6.8 h -8 c -6.577778,0 -8,-0.21334 -8,-1.2 0,-0.98667 1.422222,-1.2 8,-1.2 h 8 v -24 c 0,-20.8 0.16,-24 1.2,-24 1.046667,0 1.2,4.08888 1.2,32 v 32 h 14.800001 14.8 v -8 c 0,-6.57778 0.213334,-8 1.2,-8 0.986666,0 1.2,1.42222 1.2,8 v 8 h 6.8 6.800001 v -54.8 -54.8 h -16.000001 -16 v -9.20001 c 0,-7.64444 0.202898,-9.2 1.2,-9.2 0.986666,0 1.2,1.42223 1.2,8 v 8 h 14.8 14.800001 v -8 c 0,-6.57777 0.213336,-8 1.2,-8 0.986664,0 1.2,1.42223 1.2,8 v 8 h 6.799995 6.8 v -14.8 -14.8 h -8 c -6.577771,0 -7.999995,-0.21333 -7.999995,-1.2 0,-1.02666 2.311112,-1.2 15.999995,-1.2 h 16 v -14.8 -14.800002 h -6.8 -6.8 v 8.000002 8 h -9.2 c -7.644443,0 -9.199995,-0.20289 -9.199995,-1.2 0,-0.98666 1.422224,-1.2 7.999995,-1.2 h 8 v -8 -8.000002 h 8 8 v -14.8 -14.799998 h -8 -8 v -9.2 c 0,-7.644445 0.2029,-9.2 1.2,-9.2 0.98667,0 1.2,1.422222 1.2,8 v 8 h 8 8 v 33.199998 33.200002 h -8 -8 v 16 16.00001 h -8 -7.999995 v 30.8 30.8 h 7.999995 c 6.57778,0 8,0.21333 8,1.2 0,0.98666 -1.42222,1.2 -8,1.2 h -7.999995 v 24 24 h -16.000001 -16 v 8 c 0,6.57777 -0.213334,8 -1.2,8 -0.986667,0 -1.2,-1.42223 -1.2,-8 v -8 H 38.089053 15.289052 v 22.8 22.8 h 14.800001 14.8 v -14.8 -14.8 h -6.8 -6.8 v 8 c 0,6.57778 -0.213334,8 -1.2,8 -0.997102,0 -1.2,-1.55555 -1.2,-9.2 v -9.2 h 9.2 9.2 v 16 16 h 30.800001 30.799996 v -6.8 -6.8 H 84.889054 c -20.8,0 -24,-0.16 -24,-1.2 0,-1.04127 3.333333,-1.2 25.2,-1.2 h 25.199996 v 8 8 h 14.8 14.8 v -22.8 -22.8 h -8 -8 v -8 -8 h -6.8 -6.8 v 14.8 14.8 h 8 8 v 9.2 c 0,7.64445 -0.20289,9.2 -1.2,9.2 -0.98666,0 -1.2,-1.42222 -1.2,-8 v -8 h -24 c -20.799996,0 -23.999996,-0.16 -23.999996,-1.2 0,-1.02667 2.311111,-1.2 16.000001,-1.2 h 15.999995 v -24 c 0,-20.8 0.16,-24 1.2,-24 0.98667,0 1.2,1.42222 1.2,8 v 8 h 8 8 v 8 8 h 14.8 14.8 v -14.8 -14.8 h -6.8 -6.8 v 8 c 0,6.57777 -0.21333,8 -1.2,8 -0.98666,0 -1.2,-1.42223 -1.2,-8 v -8 h -8 -8 v -25.2 -25.2 h 8 8 v -8 c 0,-6.57778 0.21334,-8 1.2,-8 0.99711,0 1.2,1.55555 1.2,9.2 v 9.2 h -8 -8 v 22.8 22.8 h 14.8 14.8 v -8 c 0,-6.57778 0.21334,-8 1.2,-8 1.04128,0 1.2,3.33333 1.2,25.2 v 25.2 h -8 -8 v 22.8 22.8 h 14.8 14.8 v -6.8 -6.8 h -8 c -6.57777,0 -8,-0.21334 -8,-1.2 0,-0.9971 1.55556,-1.2 9.2,-1.2 h 9.20001 v 9.2 9.2 H 94.089055 12.889052 Z m 176.000008,137.2 v -16 h -16.00001 c -13.68888,0 -16,-0.17334 -16,-1.2 0,-0.98667 1.42223,-1.2 8,-1.2 h 8 v -38.8 -38.8 h -14.8 -14.8 v 8 c 0,6.57777 -0.21333,8 -1.2,8 -0.9971,0 -1.2,-1.55556 -1.2,-9.2 v -9.2 h 8 8 v -22.8 -22.8 h -14.8 -14.8 v 8 8 h -8 -8 v 16 c 0,13.68888 -0.17333,16 -1.2,16 -1.02945,0 -1.2,-2.44445 -1.2,-17.2 v -17.2 h 8 8 v -16.00001 c 0,-13.68888 0.17334,-16 1.2,-16 0.98667,0 1.2,1.42223 1.2,8 v 8 h 14.8 14.8 v -8 -8 h 16 16.00001 v -14.8 -14.8 h -16.00001 -16 v -9.2 c 0,-7.644452 0.2029,-9.200002 1.2,-9.200002 0.98667,0 1.2,1.42223 1.2,8.000002 v 8 h 6.8 6.8 v -8 c 0,-6.577772 0.21334,-8.000002 1.2,-8.000002 0.98667,0 1.20001,1.42223 1.20001,8.000002 v 8 h 16 16 v 8 8 h 14.8 14.8 v -16 -16.000002 h 8 8 v -14.8 -14.799998 h -16 c -13.68889,0 -16,-0.173333 -16,-1.2 0,-1.04127 3.33333,-1.2 25.2,-1.2 h 25.2 v 7.999998 8 h 24 c 20.8,0 24,0.16 24,1.2 0,1.04 -3.2,1.2 -24,1.2 h -24 v 8 c 0,6.57778 -0.21334,8 -1.2,8 -1.02667,0 -1.2,-2.31111 -1.2,-16 V 66.42336 h -6.8 -6.8 v 23.999998 c 0,20.800002 -0.16,24.000002 -1.2,24.000002 -0.98667,0 -1.2,-1.42222 -1.2,-8 v -8.000002 h -6.8 -6.8 v 14.800002 14.8 h 14.8 14.8 v -8 c 0,-6.57777 0.21333,-8 1.2,-8 0.98666,0 1.2,1.42223 1.2,8 v 8 h 14.8 14.8 v -6.8 -6.8 h -8 -8 v -9.2 c 0,-7.644452 0.20289,-9.200002 1.2,-9.200002 0.98666,0 1.2,1.42223 1.2,8.000002 v 8 h 8 8 v 25.2 c 0,21.86667 -0.15873,25.20001 -1.2,25.20001 -1.02667,0 -1.2,-2.31112 -1.2,-16.00001 v -16 h -14.8 -14.8 v 8 c 0,6.57778 -0.21334,8 -1.2,8 -0.98667,0 -1.2,-1.42222 -1.2,-8 v -8 h -22.8 -22.8 v 8 c 0,6.57778 -0.21334,8 -1.2,8 -0.98667,0 -1.2,-1.42222 -1.2,-8 v -8 h -8 -8 v -8 -8 h -6.8 -6.8 v 30.8 30.80001 h 16 16 v 8 8 h 8 c 6.57777,0 8,0.21333 8,1.2 0,0.98666 -1.42223,1.2 -8,1.2 h -8 v 8 c 0,6.57777 -0.21334,8 -1.2,8 -1.02667,0 -1.2,-2.31112 -1.2,-16 v -16 h -16 -16 v -16 -16.00001 h -14.80001 -14.8 v 30.80001 30.8 h 14.8 14.80001 v -6.8 -6.8 h -8 -8.00001 v -17.2 c 0,-14.75556 0.17055,-17.20001 1.2,-17.20001 1.02667,0 1.20001,2.31112 1.20001,16.00001 v 16 h 8 8 v 9.2 9.2 h -8 -8 v 14.8 14.8 h 24 c 20.8,0 24,0.16 24,1.2 0,0.98666 -1.42223,1.2 -8,1.2 h -8 v 14.8 14.8 h 16 c 13.68888,0 16,0.17333 16,1.2 0,0.98666 -1.42223,1.2 -8,1.2 h -8 v 8 c 0,6.57777 -0.21334,8 -1.2,8 -0.98667,0 -1.2,-1.42223 -1.2,-8 v -8 h -16 c -13.68889,0 -16,-0.17334 -16,-1.2 0,-0.98667 1.42222,-1.2 8,-1.2 h 8 v -14.8 -14.8 h -14.8 -14.8 v 6.8 6.8 h 8 c 6.57777,0 8,0.21333 8,1.2 0,0.98666 -1.42223,1.2 -8,1.2 h -8 v 14.8 14.8 h 16 16 v 8 8 h 30.8 30.8 v -8 c 0,-6.57778 0.21333,-8 1.2,-8 0.98666,0 1.2,1.42222 1.2,8 v 8 h 8 c 6.57777,0 8,0.21334 8,1.2 0,1.05114 -5.11111,1.2 -41.2,1.2 h -41.2 v -8 -8 h -6.8 -6.8 v 14.8 14.8 h 54.8 54.8 v -22.8 -22.8 h -6.8 -6.8 v 8 c 0,6.57777 -0.21334,8 -1.2,8 -0.98667,0 -1.2,-1.42223 -1.2,-8 v -8 h -14.8 -14.8 v 8 8 h -9.2 c -7.64445,0 -9.2,-0.2029 -9.2,-1.2 0,-0.98667 1.42222,-1.2 8,-1.2 h 8 v -14.8 -14.8 h -16 c -13.68889,0 -16,-0.17334 -16,-1.2 0,-0.98667 1.42222,-1.2 8,-1.2 h 8 v -14.8 -14.8 h -24 c -20.8,0 -24,-0.16 -24,-1.2 0,-0.98667 1.42222,-1.2 8,-1.2 h 8 v -16 c 0,-13.68889 0.17333,-16 1.2,-16 1.02666,0 1.2,2.31111 1.2,16 v 16 h 14.8 14.8 v -8 -8 h 8 8 v -14.8 -14.8 h -8 c -6.57778,0 -8,-0.21334 -8,-1.2 0,-0.98667 1.42222,-1.2 8,-1.2 h 8 v -14.8 -14.80001 h -6.8 -6.8 v 8 8.00001 h -17.2 -17.2 v -9.20001 c 0,-7.64444 0.20289,-9.2 1.2,-9.2 0.98666,0 1.2,1.42223 1.2,8 v 8 h 14.8 14.8 v -8 -8 h 9.2 9.2 v 24.00001 24 h 6.8 6.8 v -8 c 0,-6.57778 0.21333,-8 1.2,-8 0.98666,0 1.2,1.42222 1.2,8 v 8 h 16 c 13.68889,0 16,0.17333 16,1.2 0,1.04 -3.2,1.2 -24,1.2 h -24 v 22.8 22.8 h 14.8 14.8 v -8 -8 h 9.2 c 7.64445,0 9.2,0.20289 9.2,1.2 0,0.98666 -1.42223,1.2 -8,1.2 h -8 v 8 8 h -17.2 -17.2 v -16 -16 h -6.8 -6.8 v 22.8 22.8 h 24 c 20.8,0 24,0.16 24,1.2 0,1.02666 -2.31111,1.2 -16,1.2 h -16 v 6.8 6.8 h 24 24 v 24 24 h 14.8 14.8 v -6.8 -6.8 h -8 c -6.57778,0 -8,-0.21334 -8,-1.2 0,-0.98666 1.42222,-1.2 8,-1.2 h 8 v -30.8 -30.8 h -14.8 -14.8 v 6.8 6.8 h 8 8 v 17.2 c 0,14.75555 -0.17054,17.2 -1.2,17.2 -1.02666,0 -1.2,-2.31111 -1.2,-16 v -16 h -8 -8 v -9.2 -9.2 h 16 16 v -63.6 c 0,-56.00001 0.1434,-63.60001 1.2,-63.60001 1.06056,0 1.2,12.17778 1.2,104.80001 v 104.8 h -73.2 -73.2 z m 134.55085,10.36883 c -0.96297,-0.89713 -1.75085,-2.33713 -1.75085,-3.2 0,-2.17891 2.80716,-4.76883 5.16883,-4.76883 2.18883,0 5.23117,2.79158 5.23117,4.8 0,1.94958 -3.01688,4.8 -5.08031,4.8 -0.9999,0 -2.60587,-0.73402 -3.56884,-1.63117 z m -161.06223,-1.51871 c -1.53575,-1.2603 -1.72367,-1.82082 -1.00576,-3 1.21838,-2.00121 4.85021,-3.21031 6.50589,-2.16594 2.75751,1.7394 3.142,3.50875 1.12262,5.16594 -1.03875,0.85243 -2.52886,1.54988 -3.31138,1.54988 -0.78251,0 -2.27262,-0.69745 -3.31137,-1.54988 z M 36.613043,302.56038 c -1.754738,-1.93896 -1.673361,-4.33403 0.22589,-6.64839 1.260295,-1.53574 1.820825,-1.72366 3,-1.00576 2.410682,1.46769 3.122335,4.67729 1.564308,7.05514 -1.594591,2.43366 -2.973785,2.60612 -4.790198,0.59901 z M 307.43991,252.7922 c -0.96297,-0.89714 -1.75085,-2.51714 -1.75085,-3.6 0,-2.36167 2.58992,-5.16883 4.76883,-5.16883 2.07347,0 4.83117,3.03655 4.83117,5.31969 0,2.06343 -2.85042,5.08031 -4.8,5.08031 -0.71406,0 -2.08618,-0.73403 -3.04915,-1.63117 z m -38.55085,-35.56883 v -9.2 h 24 24 v -14.8 -14.8 h -16 -16 v -8 -8 h -8 c -6.57778,0 -8,-0.21334 -8,-1.2 0,-0.98667 1.42222,-1.20001 8,-1.20001 h 8 v -8 c 0,-6.57777 0.21333,-8 1.2,-8 1.02666,0 1.2,2.31112 1.2,16 v 16.00001 h 14.8 14.8 V 137.22336 98.423358 h -8 c -6.57778,0 -8,-0.21333 -8,-1.2 0,-1.02666 2.31111,-1.2 16,-1.2 h 16 v -14.8 -14.799998 h -8 c -6.57778,0 -8,-0.213333 -8,-1.2 0,-0.986666 1.42222,-1.2 8,-1.2 h 8 v -22.800001 -22.8 h -8 c -6.57778,0 -8,-0.213334 -8,-1.2 0,-0.986667 1.42222,-1.2 8,-1.2 h 8 v -6.8000011 -6.8 h -14.8 -14.8 v 14.8000011 14.8 h 8 8 v 9.2 9.200001 h -16 -16 v 6.8 6.8 h 8 c 6.57777,0 8,0.213334 8,1.2 0,0.997102 -1.55555,1.2 -9.2,1.2 h -9.2 v -8 -8 h -8 c -6.57778,0 -8,-0.213334 -8,-1.2 0,-0.986667 1.42222,-1.2 8,-1.2 h 8 v -6.800001 -6.8 h -14.8 -14.8 v 8 8.000001 h -32 -32 v 8 c 0,6.577778 -0.21334,8 -1.2,8 -0.98667,0 -1.2,-1.422222 -1.2,-8 v -8 h -16.00001 c -13.68888,0 -16,-0.173334 -16,-1.2 0,-1.053334 5.86667,-1.2 48.00001,-1.2 h 48 V 32.023359 c 0,-13.688889 0.17333,-16 1.2,-16 0.98666,0 1.2,1.422222 1.2,8 v 8 h 14.8 14.8 v -8 c 0,-6.577778 0.21333,-8 1.2,-8 1.02666,0 1.2,2.311111 1.2,16 V 48.02336 h 14.8 14.8 v -6.800001 -6.8 h -8 -8 v -16 -16.0000011 h -8 c -6.57778,0 -8,-0.213333 -8,-1.2 0,-1.04127003 3.33333,-1.20000003 25.2,-1.20000003 h 25.2 V 49.22336 98.423358 h -8 -8 v 64.000012 c 0,56.35555 -0.14334,64 -1.2,64 -0.98666,0 -1.2,-1.42223 -1.2,-8 v -8 h -22.8 -22.8 v 8 c 0,6.57777 -0.21334,8 -1.2,8 -0.99711,0 -1.2,-1.55556 -1.2,-9.2 z m -26.51138,2.05012 c -1.53574,-1.2603 -1.72366,-1.82083 -1.00576,-3 1.21839,-2.00121 4.85021,-3.21032 6.50589,-2.16594 2.75751,1.73939 3.14201,3.50874 1.12262,5.16594 -1.03875,0.85243 -2.52886,1.54988 -3.31137,1.54988 -0.78251,0 -2.27263,-0.69745 -3.31138,-1.54988 z m 15.45083,-30.70168 c -2.22361,-2.36693 -2.19612,-3.84052 0.11211,-6.009 2.37027,-2.22675 5.63661,-2.22192 7.71727,0.0114 2.12206,2.27776 2.06114,3.96631 -0.22039,6.10971 -2.40209,2.25664 -5.42551,2.21209 -7.60899,-0.11211 z m -13.45364,-31.41045 c -1.54408,-2.35656 -0.85537,-5.56368 1.51419,-7.05104 1.81199,-1.13738 3.93045,0.12268 4.93263,2.93392 0.90477,2.538 -1.17687,6.17912 -3.53263,6.17912 -0.85971,0 -2.1711,-0.92789 -2.91419,-2.062 z M 140.88905,82.423358 V 18.423359 h -16 c -13.68889,0 -16,-0.173334 -16,-1.2 0,-1.029458 2.44445,-1.2 17.2,-1.2 h 17.2 v 8 8 h 30.8 30.80001 v -14.8 -14.8000011 h -22.8 -22.80001 v 6.8 6.8000011 h 16.00001 c 13.68888,0 16,0.173333 16,1.2 0,1.029457 -2.44445,1.2 -17.20001,1.2 h -17.2 V 10.423358 2.4233579 h -30.8 -30.799995 v 14.8000011 14.8 h 15.999995 16 v 9.2 c 0,7.644445 -0.20289,9.200001 -1.2,9.200001 -0.98666,0 -1.2,-1.422223 -1.2,-8.000001 v -8 h -14.8 -14.799995 V 57.22336 80.023358 h 7.999995 c 6.57778,0 8,0.21334 8,1.2 0,1.04 -3.2,1.2 -23.999996,1.2 h -24 v 8 8 H 46.089053 c -14.755556,0 -17.2,-0.17054 -17.2,-1.2 0,-1.02666 2.311111,-1.2 16,-1.2 h 16.000001 v -22.8 -22.799998 h -8.000001 c -6.577778,0 -8,-0.213334 -8,-1.2 0,-0.986667 1.422222,-1.2 8,-1.2 h 8.000001 v -14.800001 -14.8 H 44.889053 c -13.688889,0 -16,-0.173334 -16,-1.2 0,-1.04127 3.333333,-1.2 25.2,-1.2 21.866667,0 25.200001,0.15873 25.200001,1.2 0,0.986666 -1.422222,1.2 -8,1.2 h -8 V 49.22336 80.023358 h 14.8 14.800001 V 57.22336 34.423359 h -6.800001 -6.8 V 50.42336 c 0,13.688889 -0.173334,16 -1.2,16 -1.029458,0 -1.2,-2.444445 -1.2,-17.2 V 32.023359 h 8 8.000001 v -14.8 V 2.4233579 H 52.889053 c -35.022223,0 -40.000001,-0.149333 -40.000001,-1.2 0,-1.06171303 14.888889,-1.20000003 129.199998,-1.20000003 H 271.28906 V 9.2233579 c 0,7.6444451 -0.2029,9.2000011 -1.2,9.2000011 -0.98667,0 -1.2,-1.422223 -1.2,-8.000001 V 2.4233579 h -14.8 -14.8 v 16.0000011 16 h -9.2 -9.2 v -9.2 c 0,-7.644445 0.20289,-9.2 1.2,-9.2 0.98666,0 1.2,1.422222 1.2,8 v 8 h 6.8 6.8 v -14.8 -14.8000011 h -14.8 -14.8 v 16.0000011 16 h -32 -32.00001 v 14.800001 14.8 h 8 c 6.57778,0 8,0.213334 8,1.2 0,0.986667 -1.42222,1.2 -8,1.2 h -8 v 6.799998 6.8 h 14.8 14.8 v -8 c 0,-6.577776 0.21334,-7.999998 1.2,-7.999998 0.98667,0 1.20001,1.422222 1.20001,7.999998 v 8 h 8 8 v 8 8 h 14.8 14.8 v -6.8 -6.8 h -8 -8 v -9.2 c 0,-7.644443 0.20289,-9.199998 1.2,-9.199998 0.98666,0 1.2,1.422222 1.2,7.999998 v 8 h 16 c 13.68888,0 16,0.17334 16,1.2 0,0.98667 -1.42223,1.2 -8,1.2 h -8 v 16 c 0,13.688892 -0.17334,16.000002 -1.2,16.000002 -0.98667,0 -1.2,-1.42222 -1.2,-8 v -8.000002 h -16 -16 v -8 -8 h -22.80001 -22.8 v 22.800002 22.8 h 16 c 13.68889,0 16.00001,0.17334 16.00001,1.2 0,1.02667 -2.31112,1.2 -16.00001,1.2 h -16 v 8 c 0,6.57778 -0.21333,8 -1.2,8 -1.05666,0 -1.2,-7.64444 -1.2,-64.000002 z m 53.60001,42.400002 c -0.88,-0.88 -1.6,-2.32 -1.6,-3.2 0,-0.88 0.72,-2.32 1.6,-3.2 0.88,-0.88 2.32,-1.6 3.2,-1.6 0.88,0 2.32,0.72 3.2,1.6 0.88,0.88 1.6,2.32 1.6,3.2 0,0.88 -0.72,2.32 -1.6,3.2 -0.88,0.88 -2.32,1.6 -3.2,1.6 -0.88,0 -2.32,-0.72 -3.2,-1.6 z m -30.40001,-15.2 c -1.92208,-1.92208 -2.03077,-3.82896 -0.35464,-6.22199 2.34699,-3.35078 7.55464,-1.14492 7.55464,3.2 0,1.73234 -2.75086,4.62199 -4.4,4.62199 -0.66,0 -1.92,-0.72 -2.8,-1.6 z m 78.924,-1.46299 c -1.72084,-1.9015 -1.67635,-3.57015 0.139,-5.21301 1.91931,-1.73696 4.3665,-1.68039 6.01302,0.139 1.72084,1.9015 1.67635,3.57015 -0.139,5.21301 -1.91932,1.73696 -4.3665,1.68039 -6.01302,-0.139 z M 36.613043,76.960368 c -1.72084,-1.90151 -1.676346,-3.57015 0.139003,-5.21302 1.919313,-1.73695 4.366495,-1.68038 6.013017,0.139 1.72084,1.90151 1.676346,3.57015 -0.139003,5.21302 -1.919313,1.73696 -4.366495,1.68038 -6.013017,-0.139 z M 83.289054,47.22336 c -0.88,-0.880001 -1.6,-2.500001 -1.6,-3.600001 0,-2.381998 2.576649,-5.2 4.754637,-5.2 1.881559,0 4.045363,2.876615 4.045363,5.378005 0,2.063008 -2.592504,5.021996 -4.4,5.021996 -0.66,0 -1.92,-0.72 -2.8,-1.6 z M 227.42154,29.146113 c -2.37537,-1.663775 -1.98684,-4.304413 0.86752,-5.89602 1.97686,-1.102313 2.42313,-1.102313 4.4,0 2.85435,1.591607 3.24288,4.232245 0.86751,5.89602 -2.30246,1.612706 -3.83257,1.612706 -6.13503,0 z m 96.04553,-15.968118 c -0.97791,-0.684949 -1.77801,-1.944949 -1.77801,-2.8 0,-2.1779881 2.818,-4.7546371 5.2,-4.7546371 2.21134,0 5.2,2.528867 5.2,4.4000001 0,1.807496 -2.95898,4.400001 -5.02199,4.400001 -1.00211,0 -2.62211,-0.560414 -3.6,-1.245364 z M 165.10665,12.654817 c -2.88256,-1.391236 -3.15983,-3.8476531 -0.67549,-5.9845831 2.75905,-2.373245 6.08625,-2.371371 8.31845,0.0047 2.25361,2.398864 2.19253,3.275916 -0.36844,5.2903761 -2.30168,1.810504 -4.51686,2.020471 -7.27452,0.689522 z"
     id="path3763"
     inkscape:connector-curvature="0" />
</svg>
